<svg width="322" height="280" viewBox="0 0 322 280" fill="none" xmlns="http://www.w3.org/2000/svg">
<path d="M200.614 95.3334C200.614 95.3334 189.138 66.443 188.315 62.5232C188.17 61.7973 188.218 61.2166 188.412 60.7327C187.686 62.5232 188.122 65.1364 188.315 65.959C189.09 69.9272 200.614 98.7693 200.614 98.7693L220.128 87.4938C220.128 87.4938 219.256 86.7195 217.804 85.4613L200.614 95.3334Z" fill="url(#paint0_linear)"/>
<path d="M200.619 95.3339C200.619 95.3339 189.143 66.4434 188.32 62.5236C187.69 59.4265 190.596 58.4587 191.709 59.0878C192.484 59.5233 220.132 84.0584 220.132 84.0584L200.619 95.3339Z" fill="#F6F6FB"/>
<path d="M109.971 119.675C109.971 116.578 107.792 112.803 105.129 111.255C103.966 110.577 102.901 110.48 102.03 110.771V110.722L83.4844 117.159L93.7013 135.693L108.712 122.675C109.487 122.191 109.971 121.175 109.971 119.675Z" fill="#6B67E9"/>
<path d="M105.323 129.16C105.323 122.337 100.529 114.013 94.5736 110.577C92.4914 109.368 90.6031 108.98 88.9568 109.174C83.7757 109.416 70.5083 112.852 66.6831 114.352C59.6136 117.11 50.7041 124.079 46.5398 128.241C43.683 131.096 61.3083 163.083 65.9083 161.97C71.9125 160.519 81.8872 155.534 88.5209 151.034C94.3799 147.065 103.289 136.032 104.161 134.048C104.887 132.79 105.323 131.144 105.323 129.16Z" fill="url(#paint1_linear)"/>
<path d="M42.8584 136.903C42.8584 128.144 49.0078 124.563 56.6099 128.967C64.2121 133.371 70.3615 144.017 70.3615 152.824C70.3615 161.584 64.2121 165.165 56.6099 160.761C49.0563 156.357 42.8584 145.662 42.8584 136.903Z" fill="#00C084"/>
<path d="M44.2158 137.677C44.2158 129.74 49.7843 126.546 56.6601 130.515C63.5359 134.483 69.1043 144.113 69.1043 152.049C69.1043 159.986 63.5359 163.18 56.6601 159.212C49.7843 155.243 44.2158 145.613 44.2158 137.677Z" fill="url(#paint2_linear)"/>
<path d="M92.8291 164.631C92.8291 164.631 40.7765 64.652 40.1954 63.539C39.6144 62.3776 39.9532 60.7807 40.9701 60.2C40.1469 60.6839 38.4038 62.8615 40.6796 67.7008C40.7765 67.9428 40.8732 68.1847 40.9701 68.3783C41.8901 70.314 92.8291 175.326 92.8291 175.326L142.412 146.726L135.44 140.048L92.8291 164.631Z" fill="url(#paint3_linear)"/>
<path d="M92.8292 164.632C92.8292 164.632 40.7766 64.6524 40.1955 63.5393C39.6145 62.3779 39.9533 60.781 40.9702 60.2003C41.987 59.6196 49.5892 55.2158 49.5892 55.2158L142.412 136.032L92.8292 164.632Z" fill="#F6F6FB"/>
<path d="M261.672 72.1049C261.672 71.0402 260.897 69.6852 259.977 69.1529C259.59 68.911 259.203 68.9109 258.912 69.0077C228.988 75.9279 203.325 91.6555 178.775 105.835L40.9688 185.344L67.6972 232.865L194.512 159.599C214.026 149.34 251.31 99.7855 261.479 72.7824C261.624 72.6372 261.672 72.3952 261.672 72.1049Z" fill="url(#paint4_linear)"/>
<path d="M259.979 69.2015C259.592 68.9595 259.204 68.9595 258.914 69.0563C257.074 69.4918 255.185 69.9758 253.394 70.4597C254.023 70.3145 254.749 70.4113 255.573 70.8953C257.606 72.1051 259.301 74.9602 259.301 77.3314C259.301 77.9122 259.204 78.3961 259.01 78.8317C259.979 76.7508 260.802 74.7667 261.528 72.8793C261.625 72.6858 261.674 72.4438 261.674 72.2018C261.674 71.0404 260.947 69.7338 259.979 69.2015Z" fill="url(#paint5_linear)"/>
<path d="M73.7506 220.186C73.7506 207.894 65.1316 192.941 54.4306 186.747C49.2011 183.746 44.4558 183.408 40.9695 185.295L40.9211 185.343C40.7275 185.44 40.5821 185.585 40.3885 185.682C29.9779 192.07 27.9442 204.652 24.361 209.007C19.4705 215.008 18.1631 226.477 20.4873 230.978C22.7631 235.527 31.5758 239.204 41.018 239.204C46.7316 239.253 55.9316 238.285 67.7464 232.817C71.4264 230.929 73.7506 226.574 73.7506 220.186Z" fill="url(#paint6_linear)"/>
<path d="M41.3557 216.702C38.402 216.509 30.4609 216.412 30.4609 216.412C31.4294 213.267 31.962 211.863 33.2694 209.056C36.2715 210.75 37.9177 210.895 41.5493 210.895C41.5493 210.895 41.5009 214.138 41.3557 216.702Z" fill="url(#paint7_linear)"/>
<path d="M52.5417 215.977C48.3291 216.702 43.0996 216.751 43.0996 216.751C43.2449 214.186 43.2933 212.831 43.3417 210.944C43.3417 210.944 45.2785 210.992 47.6027 210.605C49.9753 210.17 56.7544 215.202 52.5417 215.977Z" fill="url(#paint8_linear)"/>
<path d="M27.2666 209.347C27.7024 210.363 29.5908 215.686 29.5908 215.686C30.4624 212.589 30.9951 211.186 32.254 208.379C30.1719 206.83 29.7845 205.427 29.2519 203.782C29.3003 203.782 28.1382 206.685 27.2666 209.347Z" fill="url(#paint9_linear)"/>
<path d="M26.3945 205.524C26.4914 206.976 27.0241 208.718 27.0241 208.718C27.7023 206.492 28.1382 205.282 29.107 203.153C29.107 203.153 28.671 201.556 28.6226 200.491C28.0898 201.749 26.9758 204.266 26.3945 205.524Z" fill="url(#paint10_linear)"/>
<path d="M247.873 203.83C247.873 200.733 245.694 196.958 243.031 195.41C241.869 194.732 240.804 194.635 239.932 194.926V194.877L221.387 201.314L231.604 219.848L246.614 206.83C247.389 206.298 247.873 205.282 247.873 203.83Z" fill="#6B67E9"/>
<path d="M243.224 213.267C243.224 206.443 238.431 198.12 232.475 194.684C230.393 193.474 228.504 193.087 226.858 193.281C221.677 193.523 208.41 196.959 204.584 198.459C197.515 201.217 188.605 208.186 184.441 212.347C181.584 215.203 199.21 247.19 203.81 246.077C209.814 244.625 219.789 239.641 226.422 235.14C232.281 231.172 241.191 220.139 242.062 218.155C242.789 216.896 243.224 215.251 243.224 213.267Z" fill="url(#paint11_linear)"/>
<path d="M180.811 221.01C180.811 212.25 186.96 208.669 194.562 213.073C202.164 217.477 208.314 228.123 208.314 236.931C208.314 245.69 202.164 249.271 194.562 244.867C186.96 240.463 180.811 229.817 180.811 221.01Z" fill="#00C084"/>
<path d="M182.118 221.783C182.118 213.847 187.687 210.653 194.562 214.621C201.438 218.59 207.007 228.22 207.007 236.156C207.007 244.093 201.438 247.286 194.562 243.318C187.687 239.35 182.118 229.72 182.118 221.783Z" fill="url(#paint12_linear)"/>
<path d="M242.402 208.04L206.764 205.911C219.353 208.815 227.197 223.768 220.806 238.576C222.791 237.415 224.679 236.253 226.374 235.092C232.233 231.124 241.143 220.09 242.014 218.106C242.74 216.848 243.176 215.203 243.176 213.218C243.225 211.573 242.934 209.831 242.402 208.04Z" fill="url(#paint13_linear)"/>
<path d="M131.471 186.893C131.471 186.893 300.993 216.267 303.801 216.751C306.61 217.235 312.42 216.848 314.745 215.493C317.069 214.138 321.136 211.815 321.136 211.815L181.054 158.292L131.471 186.893Z" fill="#F6F6FB"/>
<path d="M321.086 211.863C321.086 211.863 317.019 214.234 314.695 215.541C312.37 216.896 306.56 217.283 303.751 216.799C301.379 216.364 131.566 186.941 131.421 186.941C128.322 188.731 128.128 194.635 130.501 194.926C130.501 194.926 300.943 219.558 303.751 220.042C306.56 220.525 312.37 220.138 314.695 218.783C317.019 217.428 321.086 215.105 321.086 215.105C322.103 214.476 322.49 212.395 321.086 211.863Z" fill="url(#paint14_linear)"/>
<path d="M254.409 87.881C256.346 82.8965 253.441 75.9764 250.1 75.0085C245.451 77.6701 206.763 99.6888 206.763 99.6888C213.881 101.286 230.005 112.271 225.937 129.547C236.687 116.433 247.146 101.141 254.409 87.881Z" fill="url(#paint15_linear)"/>
<path d="M224.922 109.368C224.922 109.368 274.989 115.997 281.817 116.481C287.191 116.82 288.886 115.175 287.724 114.546C286.949 114.11 244.387 98.1404 244.387 98.1404L224.922 109.368Z" fill="url(#paint16_linear)"/>
<path d="M287.723 114.497C288.885 115.126 287.19 116.82 281.816 116.433C276.296 116.046 242.401 111.642 229.714 109.948C226.761 109.561 224.921 109.319 224.921 109.319C223.517 110.142 223.565 112.562 224.921 112.707C224.921 112.707 274.843 118.224 281.719 118.707C284.721 118.901 285.447 119.095 287.771 117.982C290.096 116.917 289.466 115.32 287.723 114.497Z" fill="url(#paint17_linear)"/>
<path d="M207.975 99.3508C207.975 99.3508 245.162 21.0031 250.198 10.6955C254.168 6.19496 258.817 2.66232 262.255 0.678223C261.577 5.13035 250.101 75.0093 250.101 75.0093L207.975 99.3508Z" fill="#00C084"/>
<path d="M206.134 98.6241C205.698 99.4952 206.424 100.173 207.974 99.3016C207.974 99.3016 245.403 20.47 250.197 10.6463L248.357 9.96875C243.321 20.2764 206.134 98.6241 206.134 98.6241Z" fill="#00A562"/>
<path d="M260.414 0C256.976 1.9841 252.328 5.51674 248.357 10.0173L250.197 10.6948C254.168 6.19425 258.816 2.66161 262.254 0.677509L260.414 0Z" fill="#807CFB"/>
<path d="M102.177 197.635C102.08 197.055 101.548 196.861 101.063 197.151L100.676 197.393C100.191 197.684 99.8523 198.41 99.9492 198.942L100.337 201.313C100.385 201.894 100.869 202.136 101.402 201.846L101.79 201.604C102.274 201.313 102.662 200.587 102.565 200.055L102.177 197.635Z" fill="url(#paint18_linear)"/>
<path d="M106.63 195.071C106.534 194.49 106.001 194.248 105.516 194.538L105.129 194.78C104.644 195.071 104.305 195.797 104.402 196.329L104.79 198.7C104.838 199.281 105.323 199.523 105.855 199.232L106.243 198.99C106.727 198.7 107.115 197.974 107.018 197.393L106.63 195.071Z" fill="url(#paint19_linear)"/>
<path d="M97.7222 200.2C97.6253 199.62 97.0926 199.378 96.6082 199.668L96.2207 199.91C95.7363 200.2 95.3972 200.926 95.4941 201.458L95.8816 203.83C95.9301 204.41 96.4144 204.652 96.9472 204.362L97.3348 204.12C97.8191 203.83 98.2066 203.104 98.1097 202.523L97.7222 200.2Z" fill="url(#paint20_linear)"/>
<path d="M93.2671 202.765C93.1702 202.184 92.6374 201.991 92.153 202.281L91.7656 202.523C91.2812 202.813 90.9422 203.539 91.039 204.071L91.4264 206.443C91.4749 207.023 91.9593 207.265 92.4922 206.975L92.8796 206.733C93.3639 206.443 93.7515 205.717 93.6546 205.136L93.2671 202.765Z" fill="url(#paint21_linear)"/>
<path d="M88.8121 205.378C88.7153 204.797 88.1824 204.555 87.698 204.846L87.3105 205.088C86.8261 205.378 86.4871 206.104 86.584 206.636L86.9715 209.007C87.0199 209.588 87.5043 209.83 88.0371 209.54L88.4246 209.298C88.909 209.007 89.2965 208.282 89.1997 207.701L88.8121 205.378Z" fill="url(#paint22_linear)"/>
<path d="M119.996 187.327C119.899 186.747 119.366 186.505 118.882 186.795L118.494 187.037C118.01 187.327 117.671 188.005 117.768 188.586L118.155 190.957C118.204 191.538 118.688 191.78 119.221 191.489L119.608 191.247C120.093 190.957 120.48 190.231 120.383 189.65L119.996 187.327Z" fill="url(#paint23_linear)"/>
<path d="M128.954 182.198C128.857 181.618 128.324 181.376 127.84 181.666L127.452 181.908C126.968 182.198 126.629 182.924 126.726 183.457L127.113 185.828C127.162 186.408 127.646 186.65 128.179 186.36L128.566 186.118C129.051 185.828 129.438 185.102 129.341 184.521L128.954 182.198Z" fill="url(#paint24_linear)"/>
<path d="M133.407 179.633C133.31 179.052 132.777 178.859 132.293 179.149L131.905 179.391C131.421 179.682 131.082 180.408 131.179 180.94L131.566 183.311C131.615 183.892 132.099 184.134 132.632 183.843L133.019 183.601C133.504 183.311 133.891 182.585 133.794 182.004L133.407 179.633Z" fill="url(#paint25_linear)"/>
<path d="M137.863 177.068C137.766 176.488 137.233 176.246 136.749 176.536L136.361 176.778C135.877 177.068 135.538 177.794 135.635 178.327L136.022 180.698C136.071 181.279 136.555 181.521 137.088 181.23L137.475 180.988C137.96 180.698 138.347 179.972 138.25 179.391L137.863 177.068Z" fill="url(#paint26_linear)"/>
<path d="M142.319 174.455C142.222 173.875 141.689 173.681 141.205 173.971L140.817 174.213C140.333 174.504 139.994 175.229 140.091 175.762L140.478 178.133C140.527 178.714 141.011 178.956 141.544 178.665L141.931 178.423C142.416 178.133 142.803 177.407 142.706 176.826L142.319 174.455Z" fill="url(#paint27_linear)"/>
<path d="M146.771 171.891C146.674 171.31 146.141 171.116 145.657 171.358L145.269 171.6C144.785 171.891 144.446 172.568 144.543 173.149L144.93 175.52C144.979 176.101 145.463 176.343 145.996 176.052L146.383 175.81C146.868 175.52 147.255 174.794 147.159 174.213L146.771 171.891Z" fill="url(#paint28_linear)"/>
<path d="M151.227 169.326C151.13 168.745 150.597 168.552 150.113 168.842L149.726 169.084C149.241 169.374 148.902 170.1 148.999 170.633L149.387 173.004C149.435 173.585 149.919 173.827 150.452 173.536L150.84 173.294C151.324 173.004 151.711 172.278 151.615 171.697L151.227 169.326Z" fill="url(#paint29_linear)"/>
<path d="M155.682 166.761C155.585 166.18 155.053 165.938 154.568 166.277L154.181 166.519C153.696 166.809 153.357 167.487 153.454 168.067L153.842 170.439C153.89 171.019 154.374 171.261 154.907 170.971L155.295 170.729C155.779 170.439 156.167 169.713 156.07 169.132L155.682 166.761Z" fill="url(#paint30_linear)"/>
<path d="M164.59 161.631C164.494 161.05 163.961 160.808 163.476 161.147L163.089 161.389C162.604 161.679 162.265 162.405 162.362 162.938L162.75 165.309C162.798 165.889 163.283 166.131 163.815 165.841L164.203 165.599C164.687 165.309 165.075 164.583 164.978 164.002L164.59 161.631Z" fill="url(#paint31_linear)"/>
<path d="M169.047 159.018C168.95 158.438 168.418 158.244 167.933 158.486L167.546 158.728C167.061 159.018 166.722 159.744 166.819 160.276L167.207 162.599C167.304 163.18 167.74 163.422 168.272 163.132L168.66 162.89C169.144 162.599 169.532 161.873 169.435 161.293L169.047 159.018Z" fill="url(#paint32_linear)"/>
<path d="M173.499 156.453C173.402 155.872 172.869 155.679 172.385 155.969L171.997 156.211C171.513 156.501 171.174 157.227 171.27 157.76L171.658 160.131C171.706 160.712 172.191 160.954 172.724 160.663L173.111 160.421C173.596 160.131 173.983 159.405 173.886 158.824L173.499 156.453Z" fill="url(#paint33_linear)"/>
<path d="M178.004 153.888C177.908 153.308 177.375 153.066 176.89 153.356L176.503 153.598C176.019 153.889 175.679 154.614 175.776 155.147L176.164 157.518C176.212 158.099 176.697 158.341 177.229 158.05L177.617 157.808C178.101 157.518 178.489 156.792 178.392 156.211L178.004 153.888Z" fill="url(#paint34_linear)"/>
<path d="M186.913 148.759C186.816 148.178 186.283 147.936 185.799 148.227L185.411 148.469C184.927 148.759 184.588 149.485 184.685 150.017L185.072 152.389C185.12 152.969 185.605 153.211 186.138 152.921L186.525 152.679C187.01 152.389 187.397 151.663 187.3 151.082L186.913 148.759Z" fill="url(#paint35_linear)"/>
<path d="M195.823 143.581C195.726 143 195.193 142.758 194.709 143.097L194.321 143.339C193.837 143.629 193.498 144.355 193.595 144.888L193.982 147.259C194.031 147.839 194.515 148.081 195.048 147.791L195.435 147.549C195.92 147.259 196.307 146.533 196.21 145.952L195.823 143.581Z" fill="url(#paint36_linear)"/>
<path d="M200.277 141.016C200.18 140.436 199.647 140.242 199.163 140.484L198.775 140.726C198.291 141.016 197.952 141.742 198.049 142.275L198.436 144.646C198.533 145.226 198.969 145.468 199.502 145.178L199.889 144.936C200.374 144.646 200.761 143.92 200.664 143.339L200.277 141.016Z" fill="url(#paint37_linear)"/>
<path d="M204.732 138.451C204.635 137.871 204.102 137.629 203.618 137.967L203.23 138.209C202.746 138.5 202.407 139.226 202.504 139.758L202.891 142.129C202.94 142.71 203.424 142.952 203.957 142.661L204.345 142.419C204.829 142.129 205.216 141.403 205.119 140.823L204.732 138.451Z" fill="url(#paint38_linear)"/>
<defs>
<linearGradient id="paint0_linear" x1="188.011" y1="79.7066" x2="220.128" y2="79.7066" gradientUnits="userSpaceOnUse">
<stop offset="0.8437" stop-color="#BAE8D2"/>
<stop offset="1" stop-color="#54CC99"/>
</linearGradient>
<linearGradient id="paint1_linear" x1="100.777" y1="150.782" x2="78.8087" y2="101.752" gradientUnits="userSpaceOnUse">
<stop stop-color="#00A562"/>
<stop offset="1" stop-color="#00C084"/>
</linearGradient>
<linearGradient id="paint2_linear" x1="65.1128" y1="138.906" x2="49.4512" y2="149.952" gradientUnits="userSpaceOnUse">
<stop stop-color="#006232"/>
<stop offset="1" stop-color="#008148"/>
</linearGradient>
<linearGradient id="paint3_linear" x1="39.5627" y1="117.629" x2="142.413" y2="117.629" gradientUnits="userSpaceOnUse">
<stop offset="0.8437" stop-color="#BAE8D2"/>
<stop offset="1" stop-color="#54CC99"/>
</linearGradient>
<linearGradient id="paint4_linear" x1="175.632" y1="173.934" x2="150.741" y2="127.203" gradientUnits="userSpaceOnUse">
<stop stop-color="#8CDAB6"/>
<stop offset="1" stop-color="white"/>
</linearGradient>
<linearGradient id="paint5_linear" x1="261.037" y1="76.7449" x2="256.224" y2="68.6556" gradientUnits="userSpaceOnUse">
<stop stop-color="#00A562"/>
<stop offset="1" stop-color="#00C084"/>
</linearGradient>
<linearGradient id="paint6_linear" x1="56.969" y1="238.401" x2="30.4091" y2="191.798" gradientUnits="userSpaceOnUse">
<stop stop-color="#8CDAB6"/>
<stop offset="1" stop-color="white"/>
</linearGradient>
<linearGradient id="paint7_linear" x1="40.6964" y1="215.08" x2="38.0696" y2="207.474" gradientUnits="userSpaceOnUse">
<stop stop-color="#00A562"/>
<stop offset="1" stop-color="#00C084"/>
</linearGradient>
<linearGradient id="paint8_linear" x1="53.0613" y1="215.441" x2="51.2419" y2="209.089" gradientUnits="userSpaceOnUse">
<stop stop-color="#00A562"/>
<stop offset="1" stop-color="#00C084"/>
</linearGradient>
<linearGradient id="paint9_linear" x1="31.8703" y1="213.161" x2="25.3466" y2="207.703" gradientUnits="userSpaceOnUse">
<stop stop-color="#00A562"/>
<stop offset="1" stop-color="#00C084"/>
</linearGradient>
<linearGradient id="paint10_linear" x1="28.8983" y1="206.972" x2="24.691" y2="204.202" gradientUnits="userSpaceOnUse">
<stop stop-color="#00A562"/>
<stop offset="1" stop-color="#00C084"/>
</linearGradient>
<linearGradient id="paint11_linear" x1="238.679" y1="234.888" x2="216.71" y2="185.859" gradientUnits="userSpaceOnUse">
<stop stop-color="#00A562"/>
<stop offset="1" stop-color="#00C084"/>
</linearGradient>
<linearGradient id="paint12_linear" x1="203.015" y1="223.012" x2="187.354" y2="234.059" gradientUnits="userSpaceOnUse">
<stop stop-color="#006232"/>
<stop offset="1" stop-color="#008148"/>
</linearGradient>
<linearGradient id="paint13_linear" x1="206.778" y1="222.256" x2="243.224" y2="222.256" gradientUnits="userSpaceOnUse">
<stop stop-color="#8CDAB6"/>
<stop offset="0.2237" stop-color="#E3F6ED"/>
<stop offset="0.578" stop-color="white"/>
</linearGradient>
<linearGradient id="paint14_linear" x1="128.904" y1="203.552" x2="322.001" y2="203.552" gradientUnits="userSpaceOnUse">
<stop offset="0.8437" stop-color="#BAE8D2"/>
<stop offset="1" stop-color="#54CC99"/>
</linearGradient>
<linearGradient id="paint15_linear" x1="229.113" y1="87.2318" x2="246.537" y2="117.429" gradientUnits="userSpaceOnUse">
<stop offset="0.0285787" stop-color="#8CDAB6"/>
<stop offset="0.5136" stop-color="white" stop-opacity="0"/>
</linearGradient>
<linearGradient id="paint16_linear" x1="224.908" y1="107.306" x2="288.078" y2="107.306" gradientUnits="userSpaceOnUse">
<stop stop-color="white"/>
<stop offset="0.1214" stop-color="white"/>
<stop offset="1" stop-color="#E3F6ED"/>
</linearGradient>
<linearGradient id="paint17_linear" x1="223.891" y1="114.077" x2="289.283" y2="114.077" gradientUnits="userSpaceOnUse">
<stop offset="0.8437" stop-color="#BAE8D2"/>
<stop offset="1" stop-color="#54CC99"/>
</linearGradient>
<linearGradient id="paint18_linear" x1="102.376" y1="200.918" x2="99.6258" y2="197.982" gradientUnits="userSpaceOnUse">
<stop stop-color="#00A562"/>
<stop offset="1" stop-color="#00C084"/>
</linearGradient>
<linearGradient id="paint19_linear" x1="106.829" y1="198.307" x2="104.085" y2="195.371" gradientUnits="userSpaceOnUse">
<stop stop-color="#00A562"/>
<stop offset="1" stop-color="#00C084"/>
</linearGradient>
<linearGradient id="paint20_linear" x1="97.921" y1="203.437" x2="95.1769" y2="200.501" gradientUnits="userSpaceOnUse">
<stop stop-color="#00A562"/>
<stop offset="1" stop-color="#00C084"/>
</linearGradient>
<linearGradient id="paint21_linear" x1="93.4659" y1="206.048" x2="90.7156" y2="203.111" gradientUnits="userSpaceOnUse">
<stop stop-color="#00A562"/>
<stop offset="1" stop-color="#00C084"/>
</linearGradient>
<linearGradient id="paint22_linear" x1="89.011" y1="208.615" x2="86.2668" y2="205.679" gradientUnits="userSpaceOnUse">
<stop stop-color="#00A562"/>
<stop offset="1" stop-color="#00C084"/>
</linearGradient>
<linearGradient id="paint23_linear" x1="120.194" y1="190.564" x2="117.45" y2="187.628" gradientUnits="userSpaceOnUse">
<stop stop-color="#00A562"/>
<stop offset="1" stop-color="#00C084"/>
</linearGradient>
<linearGradient id="paint24_linear" x1="129.152" y1="185.435" x2="126.408" y2="182.499" gradientUnits="userSpaceOnUse">
<stop stop-color="#00A562"/>
<stop offset="1" stop-color="#00C084"/>
</linearGradient>
<linearGradient id="paint25_linear" x1="133.606" y1="182.916" x2="130.855" y2="179.98" gradientUnits="userSpaceOnUse">
<stop stop-color="#00A562"/>
<stop offset="1" stop-color="#00C084"/>
</linearGradient>
<linearGradient id="paint26_linear" x1="138.062" y1="180.305" x2="135.318" y2="177.369" gradientUnits="userSpaceOnUse">
<stop stop-color="#00A562"/>
<stop offset="1" stop-color="#00C084"/>
</linearGradient>
<linearGradient id="paint27_linear" x1="142.518" y1="177.738" x2="139.768" y2="174.801" gradientUnits="userSpaceOnUse">
<stop stop-color="#00A562"/>
<stop offset="1" stop-color="#00C084"/>
</linearGradient>
<linearGradient id="paint28_linear" x1="146.97" y1="175.132" x2="144.238" y2="172.197" gradientUnits="userSpaceOnUse">
<stop stop-color="#00A562"/>
<stop offset="1" stop-color="#00C084"/>
</linearGradient>
<linearGradient id="paint29_linear" x1="151.426" y1="172.609" x2="148.676" y2="169.672" gradientUnits="userSpaceOnUse">
<stop stop-color="#00A562"/>
<stop offset="1" stop-color="#00C084"/>
</linearGradient>
<linearGradient id="paint30_linear" x1="155.881" y1="170.039" x2="153.118" y2="167.102" gradientUnits="userSpaceOnUse">
<stop stop-color="#00A562"/>
<stop offset="1" stop-color="#00C084"/>
</linearGradient>
<linearGradient id="paint31_linear" x1="164.789" y1="164.909" x2="162.026" y2="161.972" gradientUnits="userSpaceOnUse">
<stop stop-color="#00A562"/>
<stop offset="1" stop-color="#00C084"/>
</linearGradient>
<linearGradient id="paint32_linear" x1="169.246" y1="162.221" x2="166.544" y2="159.288" gradientUnits="userSpaceOnUse">
<stop stop-color="#00A562"/>
<stop offset="1" stop-color="#00C084"/>
</linearGradient>
<linearGradient id="paint33_linear" x1="173.697" y1="159.736" x2="170.947" y2="156.799" gradientUnits="userSpaceOnUse">
<stop stop-color="#00A562"/>
<stop offset="1" stop-color="#00C084"/>
</linearGradient>
<linearGradient id="paint34_linear" x1="178.203" y1="157.125" x2="175.459" y2="154.189" gradientUnits="userSpaceOnUse">
<stop stop-color="#00A562"/>
<stop offset="1" stop-color="#00C084"/>
</linearGradient>
<linearGradient id="paint35_linear" x1="187.111" y1="151.996" x2="184.367" y2="149.06" gradientUnits="userSpaceOnUse">
<stop stop-color="#00A562"/>
<stop offset="1" stop-color="#00C084"/>
</linearGradient>
<linearGradient id="paint36_linear" x1="196.022" y1="146.859" x2="193.259" y2="143.922" gradientUnits="userSpaceOnUse">
<stop stop-color="#00A562"/>
<stop offset="1" stop-color="#00C084"/>
</linearGradient>
<linearGradient id="paint37_linear" x1="200.476" y1="144.257" x2="197.744" y2="141.322" gradientUnits="userSpaceOnUse">
<stop stop-color="#00A562"/>
<stop offset="1" stop-color="#00C084"/>
</linearGradient>
<linearGradient id="paint38_linear" x1="204.931" y1="141.73" x2="202.168" y2="138.792" gradientUnits="userSpaceOnUse">
<stop stop-color="#00A562"/>
<stop offset="1" stop-color="#00C084"/>
</linearGradient>
</defs>
</svg>
