<svg width="194" height="56" viewBox="0 0 194 56" fill="none" xmlns="http://www.w3.org/2000/svg">
<g id="apple">
<g id="apple 2">
<path id="Vector" d="M55.3505 26.8909C55.3655 25.8181 55.6555 24.7663 56.1937 23.8333C56.7319 22.9003 57.5007 22.1162 58.4289 21.5539C57.8381 20.7232 57.0586 20.0395 56.1525 19.5572C55.2464 19.075 54.2385 18.8073 53.209 18.7756C50.9782 18.545 48.8925 20.0714 47.766 20.0714C46.6395 20.0714 44.9106 18.7976 43.048 18.8415C41.8483 18.8794 40.679 19.2231 39.6546 19.8391C38.6302 20.455 37.7856 21.3221 37.2034 22.3556C34.6716 26.6603 36.5565 32.9966 38.9769 36.4778C40.1926 38.1799 41.598 40.0907 43.4384 40.0248C45.2787 39.9589 45.9256 38.9266 48.1117 38.9266C50.2979 38.9266 50.9113 40.0248 52.8074 40.0248C54.7036 40.0248 55.9751 38.3117 57.1462 36.5876C58.0169 35.3739 58.687 34.0322 59.1316 32.6123C57.9987 32.1317 57.0354 31.3323 56.3627 30.3143C55.6899 29.2964 55.3378 28.1053 55.3505 26.8909Z" fill="#364364"/>
<path id="Vector_2" d="M51.7812 16.4914C52.8434 15.2385 53.3675 13.6273 53.2424 12C51.6222 12.1659 50.1249 12.9266 49.0486 14.1304C48.5227 14.7194 48.12 15.4047 47.8636 16.1472C47.6071 16.8896 47.5019 17.6746 47.554 18.4571C48.3637 18.4655 49.1648 18.293 49.897 17.9526C50.6292 17.6121 51.2735 17.1125 51.7812 16.4914Z" fill="#364364"/>
<path id="Vector_3" d="M81.607 39.7611H79.064L77.681 35.4674H72.8626L71.5353 39.7611H69.0703L73.8441 25.1558H76.7998L81.607 39.7611ZM77.2571 33.7213L76.0079 29.9107C75.8741 29.4861 75.6324 28.56 75.2829 27.1324C75.1342 27.7547 74.9 28.6735 74.5802 29.8888L73.2753 33.7213H77.2571Z" fill="#364364"/>
<path id="Vector_4" d="M93.8636 34.3693C93.951 35.9221 93.4186 37.4472 92.3802 38.6191C91.9565 39.0733 91.4382 39.4321 90.8607 39.6709C90.2832 39.9097 89.6601 40.0229 89.0341 40.0028C88.4354 40.0466 87.8359 39.9311 87.2982 39.6683C86.7605 39.4056 86.3045 39.0052 85.978 38.5093V44H83.6468V32.6891C83.6468 31.5617 83.6171 30.4086 83.5576 29.2299H85.6545L85.7884 30.8991C86.1479 30.3553 86.6316 29.9018 87.2009 29.5748C87.7702 29.2478 88.4092 29.0564 89.067 29.0158C89.7248 28.9753 90.3831 29.0867 90.9894 29.3413C91.5956 29.5958 92.133 29.9864 92.5586 30.4818C93.4566 31.5798 93.9202 32.9608 93.8636 34.3693ZM91.4433 34.4571C91.4776 33.5607 91.2324 32.6755 90.7406 31.9204C90.5111 31.5895 90.2009 31.3205 89.8384 31.1383C89.476 30.956 89.0729 30.8662 88.666 30.8772C88.0826 30.8766 87.5178 31.0788 87.071 31.4482C86.5938 31.83 86.2632 32.3607 86.1341 32.9527C86.0685 33.1854 86.031 33.425 86.0226 33.6665V35.4235C86.0023 36.137 86.2574 36.8315 86.7364 37.3672C86.9684 37.6262 87.2557 37.8314 87.5777 37.9681C87.8998 38.1048 88.2486 38.1696 88.5991 38.1579C89.0058 38.1731 89.4098 38.0876 89.7743 37.9092C90.1387 37.7307 90.4518 37.4651 90.6848 37.1366C91.22 36.3453 91.4856 35.4069 91.4433 34.4571Z" fill="#364364"/>
<path id="Vector_5" d="M106.177 34.3693C106.263 35.922 105.731 37.4466 104.694 38.6191C104.27 39.0733 103.752 39.4321 103.174 39.6709C102.597 39.9097 101.974 40.0229 101.348 40.0028C100.749 40.0466 100.149 39.9311 99.6116 39.6683C99.0739 39.4056 98.6179 39.0052 98.2914 38.5093V44H95.9603V32.6891C95.9603 31.5617 95.9306 30.4086 95.8711 29.2299H97.968L98.1018 30.8991C98.4614 30.3553 98.9451 29.9018 99.5144 29.5748C100.084 29.2478 100.723 29.0564 101.38 29.0158C102.038 28.9753 102.697 29.0867 103.303 29.3413C103.909 29.5958 104.446 29.9864 104.872 30.4818C105.77 31.5798 106.234 32.9608 106.177 34.3693ZM103.757 34.4571C103.791 33.5607 103.546 32.6755 103.054 31.9204C102.821 31.583 102.503 31.3101 102.132 31.1275C101.761 30.9449 101.349 30.8587 100.935 30.8772C100.351 30.8766 99.7866 31.0788 99.3399 31.4482C98.8626 31.83 98.5321 32.3607 98.403 32.9527C98.3378 33.1855 98.3003 33.4251 98.2914 33.6665V35.4235C98.2712 36.137 98.5263 36.8315 99.0053 37.3672C99.2492 37.6265 99.5493 37.8283 99.8834 37.9576C100.218 38.0869 100.577 38.1404 100.935 38.114C101.342 38.1292 101.746 38.0437 102.11 37.8652C102.474 37.6868 102.788 37.4212 103.021 37.0927C103.538 36.3108 103.795 35.3896 103.757 34.4571Z" fill="#364364"/>
<path id="Vector_6" d="M119.896 35.665C119.915 36.2342 119.807 36.8005 119.579 37.3242C119.352 37.8478 119.011 38.316 118.58 38.6959C117.445 39.6071 116.004 40.0656 114.542 39.9807C113.198 40.0443 111.863 39.7281 110.694 39.0693L111.241 37.1146C112.28 37.7216 113.468 38.0368 114.676 38.026C115.42 38.0708 116.157 37.8614 116.762 37.433C117.005 37.2439 117.199 37.0012 117.328 36.7246C117.458 36.448 117.52 36.1452 117.509 35.8407C117.515 35.5638 117.464 35.2887 117.358 35.0319C117.253 34.7752 117.096 34.5422 116.896 34.3472C116.295 33.8467 115.597 33.4729 114.844 33.2491C112.263 32.2754 110.973 30.8698 110.973 29.0322C110.954 28.4604 111.071 27.8921 111.312 27.3719C111.554 26.8517 111.915 26.3939 112.367 26.0343C113.409 25.2471 114.704 24.8571 116.015 24.9361C117.17 24.8991 118.318 25.1364 119.361 25.6279L118.781 27.5387C117.902 27.0817 116.919 26.8513 115.925 26.8689C115.218 26.8273 114.52 27.0421 113.962 27.4728C113.77 27.6382 113.617 27.8426 113.513 28.072C113.409 28.3015 113.357 28.5504 113.36 28.8016C113.355 29.0749 113.414 29.3457 113.532 29.5931C113.65 29.8406 113.824 30.0582 114.04 30.2292C114.695 30.7049 115.421 31.0756 116.193 31.3273C117.261 31.6974 118.227 32.3064 119.015 33.1063C119.626 33.8194 119.94 34.7333 119.896 35.665Z" fill="#364364"/>
<path id="Vector_7" d="M127.826 30.987H125.205V36.1043C125.205 37.4075 125.666 38.059 126.588 38.059C126.944 38.0673 127.301 38.0304 127.647 37.9492L127.703 39.7172C127.106 39.9109 126.48 40.0001 125.852 39.9808C125.44 40.0069 125.027 39.9449 124.642 39.7989C124.257 39.6529 123.909 39.4265 123.621 39.1352C123.012 38.3145 122.731 37.3025 122.829 36.291V30.976H121.268V29.2189H122.829V27.2972L125.16 26.6053V29.2189H127.781L127.826 30.987Z" fill="#364364"/>
<path id="Vector_8" d="M139.627 34.4132C139.686 35.8689 139.184 37.2927 138.222 38.3994C137.727 38.9312 137.121 39.3501 136.444 39.627C135.768 39.904 135.039 40.0322 134.307 40.0027C133.604 40.0343 132.903 39.9129 132.253 39.6471C131.604 39.3814 131.021 38.9779 130.548 38.4653C129.601 37.394 129.103 36.0083 129.154 34.5889C129.095 33.1208 129.61 31.6863 130.593 30.5806C131.088 30.058 131.692 29.6477 132.364 29.3784C133.037 29.1092 133.76 28.9873 134.485 29.0213C135.193 28.9923 135.898 29.1148 136.553 29.3802C137.208 29.6456 137.796 30.0477 138.278 30.5587C139.213 31.6253 139.697 33.0054 139.627 34.4132ZM137.162 34.4132C137.186 33.544 136.966 32.6852 136.527 31.9313C136.319 31.5562 136.01 31.2449 135.634 31.0317C135.258 30.8186 134.83 30.7118 134.396 30.7234C133.942 30.7011 133.49 30.8071 133.095 31.0288C132.7 31.2506 132.377 31.579 132.165 31.9753C131.721 32.7433 131.501 33.6175 131.53 34.501C131.498 35.3814 131.718 36.2527 132.165 37.0158C132.375 37.3964 132.685 37.7142 133.063 37.9356C133.441 38.1571 133.873 38.274 134.313 38.274C134.752 38.274 135.184 38.1571 135.562 37.9356C135.94 37.7142 136.25 37.3964 136.46 37.0158C136.934 36.2491 137.178 35.3657 137.162 34.4681V34.4132Z" fill="#364364"/>
<path id="Vector_9" d="M147.357 31.2836C147.11 31.2393 146.86 31.2173 146.609 31.2177C146.232 31.1988 145.856 31.2745 145.517 31.4377C145.177 31.601 144.885 31.8465 144.669 32.1511C144.256 32.7649 144.049 33.4909 144.077 34.2266V39.7174H141.702V32.5465C141.702 31.3385 141.702 30.2294 141.635 29.252H143.709L143.799 31.2726H143.865C144.092 30.6148 144.506 30.0353 145.059 29.6034C145.555 29.2398 146.158 29.0434 146.777 29.0434C146.973 29.0287 147.171 29.0287 147.368 29.0434V31.2397L147.357 31.2836Z" fill="#364364"/>
<path id="Vector_10" d="M157.998 33.9958C158.005 34.3639 157.976 34.7318 157.909 35.094H150.77C150.755 35.5418 150.84 35.9874 151.019 36.3992C151.198 36.8111 151.468 37.179 151.807 37.4769C152.471 37.9877 153.297 38.2486 154.139 38.2127C155.124 38.2275 156.104 38.0599 157.027 37.7185L157.395 39.3438C156.256 39.8012 155.034 40.0218 153.804 39.9917C153.086 40.0317 152.367 39.9245 151.693 39.6768C151.019 39.4292 150.405 39.0466 149.889 38.5531C149.405 38.0333 149.03 37.4239 148.787 36.7603C148.544 36.0967 148.437 35.3922 148.473 34.6876C148.422 33.2529 148.893 31.8475 149.8 30.7233C150.246 30.1716 150.817 29.731 151.469 29.4372C152.12 29.1434 152.832 29.0046 153.547 29.0322C154.23 28.9946 154.91 29.1304 155.523 29.4266C156.137 29.7228 156.662 30.1693 157.05 30.7233C157.698 31.6931 158.029 32.8352 157.998 33.9958ZM155.767 33.3918C155.8 32.7601 155.641 32.1329 155.31 31.5909C155.114 31.2737 154.834 31.0151 154.5 30.8429C154.165 30.6707 153.79 30.5914 153.414 30.6135C153.042 30.6045 152.673 30.6871 152.342 30.854C152.011 31.0209 151.728 31.2666 151.517 31.5689C151.113 32.0988 150.869 32.731 150.815 33.3918H155.767Z" fill="#364364"/>
<path id="Vector_11" d="M76.1192 19.9175H74.8699L74.1673 17.8091H71.8138L71.1669 19.9175H69.9512L72.3046 12.7357H73.7546L76.1192 19.9175ZM73.9888 16.9196L73.3642 15.0527C73.2973 14.8661 73.1857 14.4158 72.9961 13.702C72.9181 14.0095 72.8177 14.4597 72.6504 15.0527L72.0481 16.9306L73.9888 16.9196Z" fill="#364364"/>
<path id="Vector_12" d="M81.9751 14.7454L79.9785 19.9286H78.8632L76.9336 14.7454H78.194L79.0974 17.4797C79.2536 17.941 79.3762 18.3692 79.4766 18.7865C79.5659 18.4132 79.6886 17.9739 79.8559 17.4797L80.7482 14.7454H81.9751Z" fill="#364364"/>
<path id="Vector_13" d="M86.2244 19.9176L86.1352 19.3246C85.9586 19.5596 85.7255 19.7478 85.4569 19.8723C85.1883 19.9969 84.8925 20.0539 84.596 20.0384C84.3861 20.0505 84.1758 20.0198 83.9785 19.9482C83.7812 19.8767 83.6009 19.7658 83.4491 19.6225C83.2973 19.4792 83.1772 19.3067 83.0962 19.1156C83.0153 18.9245 82.9753 18.719 82.9787 18.5119C82.9787 17.2381 84.0941 16.5682 86.0571 16.5682V16.4804C86.0571 15.7995 85.6891 15.4591 84.9418 15.4591C84.4559 15.4506 83.9784 15.5844 83.5699 15.8434L83.3245 15.0528C83.8713 14.7372 84.4979 14.5811 85.1314 14.6025C86.5033 14.6025 87.1948 15.3163 87.1948 16.7988V18.7096C87.1868 19.1246 87.2129 19.5396 87.2729 19.9505L86.2244 19.9176ZM86.0571 17.3369C84.7633 17.3369 84.1052 17.6444 84.1052 18.4351C84.0934 18.5427 84.1058 18.6517 84.1417 18.7541C84.1775 18.8564 84.2359 18.9498 84.3126 19.0274C84.3893 19.105 84.4825 19.165 84.5854 19.2031C84.6884 19.2412 84.7987 19.2564 84.9083 19.2477C85.2041 19.2477 85.4878 19.132 85.697 18.9261C85.9062 18.7201 86.0237 18.4408 86.0237 18.1495L86.0571 17.3369Z" fill="#364364"/>
<path id="Vector_14" d="M89.7825 13.8888C89.6451 13.8824 89.5127 13.8364 89.4016 13.7565C89.2906 13.6767 89.2057 13.5665 89.1576 13.4397C89.1096 13.3128 89.1003 13.1749 89.1311 13.0429C89.1619 12.911 89.2313 12.7908 89.3308 12.6973C89.4303 12.6038 89.5554 12.5411 89.6907 12.517C89.826 12.4929 89.9656 12.5084 90.092 12.5616C90.2185 12.6147 90.3263 12.7033 90.4022 12.8163C90.478 12.9292 90.5185 13.0616 90.5186 13.197C90.5204 13.2911 90.5023 13.3846 90.4655 13.4715C90.4286 13.5584 90.3739 13.6369 90.3047 13.7019C90.2355 13.7669 90.1534 13.8171 90.0635 13.8492C89.9736 13.8814 89.8779 13.8949 89.7825 13.8888ZM90.3848 19.9176H89.2694V14.7454H90.3848V19.9176Z" fill="#364364"/>
<path id="Vector_15" d="M93.6632 19.9177H92.5479V12.3625H93.6632V19.9177Z" fill="#364364"/>
<path id="Vector_16" d="M98.6267 19.9177L98.5374 19.3247C98.3608 19.5597 98.1277 19.7479 97.8591 19.8725C97.5905 19.997 97.2947 20.0541 96.9982 20.0385C96.7865 20.0538 96.5738 20.0254 96.3738 19.9553C96.1738 19.8852 95.9909 19.7748 95.8366 19.6312C95.6823 19.4876 95.5602 19.3139 95.4779 19.1212C95.3956 18.9285 95.355 18.7211 95.3586 18.5121C95.3586 17.2382 96.474 16.5683 98.437 16.5683V16.4805C98.437 15.7996 98.069 15.4592 97.3217 15.4592C96.8358 15.4508 96.3583 15.5845 95.9498 15.8436L95.7267 15.0529C96.2932 14.7385 96.9405 14.5935 97.5894 14.6356C98.9613 14.6356 99.6528 15.3494 99.6528 16.8319V18.7427C99.6461 19.1577 99.6722 19.5726 99.7309 19.9836L98.6267 19.9177ZM98.4593 17.337C97.1655 17.337 96.5075 17.6445 96.5075 18.4352C96.4956 18.5429 96.508 18.6518 96.5439 18.7542C96.5797 18.8566 96.6381 18.9499 96.7148 19.0275C96.7915 19.1051 96.8847 19.1651 96.9876 19.2032C97.0906 19.2413 97.2009 19.2565 97.3105 19.2478C97.6063 19.2478 97.89 19.1321 98.0992 18.9262C98.3084 18.7202 98.4259 18.4409 98.4259 18.1497L98.4593 17.337Z" fill="#364364"/>
<path id="Vector_17" d="M104.337 20.0385C104.003 20.0543 103.671 19.9772 103.379 19.816C103.087 19.6548 102.847 19.4161 102.686 19.1271L102.619 19.9287H101.604C101.604 19.5114 101.604 19.0392 101.604 18.5341V12.3625H102.72V15.5032C102.89 15.2206 103.137 14.9899 103.432 14.8367C103.727 14.6836 104.06 14.614 104.393 14.6357C105.664 14.6357 106.546 15.7338 106.546 17.2602C106.586 17.5855 106.561 17.9154 106.472 18.2311C106.383 18.5468 106.232 18.8421 106.026 19.1002C105.821 19.3582 105.567 19.5739 105.277 19.7349C104.987 19.8959 104.668 19.9991 104.337 20.0385ZM104.103 15.5361C103.747 15.5504 103.411 15.7028 103.169 15.9599C102.926 16.2171 102.797 16.5582 102.809 16.9088V17.8203C102.806 17.9876 102.837 18.1538 102.899 18.3095C102.961 18.4651 103.054 18.6072 103.172 18.7275C103.29 18.8478 103.431 18.9441 103.587 19.0108C103.743 19.0774 103.911 19.1132 104.081 19.1161C104.962 19.1161 105.475 18.4133 105.475 17.2932C105.475 16.1731 104.939 15.5361 104.103 15.5361Z" fill="#364364"/>
<path id="Vector_18" d="M109.568 19.9177H108.453V12.3625H109.568V19.9177Z" fill="#364364"/>
<path id="Vector_19" d="M115.926 17.6115H112.412C112.403 17.8233 112.441 18.0346 112.522 18.2311C112.603 18.4276 112.726 18.6047 112.882 18.7504C113.038 18.8961 113.225 19.0071 113.429 19.0758C113.632 19.1446 113.849 19.1695 114.063 19.1489C114.546 19.1544 115.026 19.0725 115.48 18.9073L115.658 19.7089C115.099 19.9334 114.499 20.0418 113.896 20.0274C113.542 20.0544 113.186 20.005 112.853 19.8827C112.52 19.7604 112.219 19.5682 111.969 19.3193C111.72 19.0705 111.528 18.7712 111.408 18.4421C111.288 18.113 111.243 17.7621 111.275 17.4138C111.239 17.0679 111.277 16.7185 111.385 16.3876C111.493 16.0566 111.669 15.7511 111.903 15.4903C112.136 15.2295 112.422 15.019 112.742 14.8719C113.062 14.7248 113.409 14.6443 113.762 14.6355C114.079 14.6332 114.393 14.6975 114.682 14.824C114.972 14.9504 115.231 15.1362 115.442 15.369C115.653 15.6017 115.811 15.8761 115.906 16.1737C116.001 16.4714 116.031 16.7856 115.993 17.0953C115.991 17.2694 115.969 17.4426 115.926 17.6115ZM114.81 16.7879C114.81 15.9862 114.398 15.4262 113.695 15.4262C113.346 15.4512 113.019 15.6056 112.781 15.8583C112.543 16.111 112.411 16.4432 112.412 16.7879H114.81Z" fill="#364364"/>
<path id="Vector_20" d="M123.008 20.0383C122.659 20.0424 122.313 19.9749 121.992 19.8399C121.671 19.7049 121.383 19.5054 121.144 19.2543C120.906 19.0032 120.724 18.7059 120.609 18.3814C120.494 18.0569 120.449 17.7123 120.477 17.3698C120.447 17.0163 120.493 16.6606 120.612 16.3258C120.731 15.991 120.92 15.6847 121.167 15.4267C121.415 15.1688 121.714 14.965 122.047 14.8287C122.38 14.6923 122.738 14.6265 123.098 14.6354C123.443 14.6285 123.785 14.6924 124.104 14.8229C124.422 14.9534 124.71 15.1478 124.948 15.3936C125.186 15.6394 125.37 15.9313 125.487 16.2507C125.604 16.5701 125.653 16.9101 125.63 17.249C125.666 17.6064 125.625 17.9674 125.509 18.3081C125.393 18.6487 125.205 18.9612 124.957 19.2249C124.709 19.4886 124.408 19.6975 124.072 19.8377C123.736 19.9779 123.373 20.0463 123.008 20.0383ZM123.008 15.481C122.161 15.481 121.625 16.2606 121.625 17.3478C121.625 18.435 122.183 19.1927 122.997 19.1927C123.812 19.1927 124.369 18.3581 124.369 17.3258C124.369 16.2936 123.878 15.481 123.053 15.481H123.008Z" fill="#364364"/>
<path id="Vector_21" d="M131.921 19.9176H130.806V16.9526C130.806 16.0411 130.449 15.5799 129.691 15.5799C129.374 15.6052 129.08 15.7515 128.872 15.9875C128.663 16.2235 128.557 16.5305 128.575 16.8428V19.9286H127.46V16.2168C127.46 15.7556 127.46 15.2724 127.46 14.7343H128.486V15.536C128.658 15.2546 128.902 15.0231 129.194 14.8649C129.486 14.7067 129.815 14.6276 130.148 14.6355C131.263 14.6355 131.977 15.4701 131.977 16.8318V19.9395L131.921 19.9176Z" fill="#364364"/>
<path id="Vector_22" d="M139.56 15.6021H138.278V18.1168C138.278 18.7538 138.504 19.0722 138.958 19.0722C139.132 19.0916 139.308 19.0916 139.482 19.0722V19.9507C139.191 20.0468 138.885 20.0914 138.579 20.0825C137.653 20.0825 137.107 19.5774 137.107 18.2706V15.6021H136.337V14.7455H137.107V13.7901L138.222 13.4497V14.7455H139.505L139.56 15.6021Z" fill="#364364"/>
<path id="Vector_23" d="M145.752 19.9177H144.636V16.9747C144.636 16.0523 144.279 15.5801 143.521 15.5801C143.362 15.5789 143.205 15.6111 143.061 15.6743C142.916 15.7375 142.786 15.8304 142.681 15.9468C142.575 16.0632 142.496 16.2003 142.449 16.3492C142.401 16.498 142.386 16.6551 142.405 16.81V19.9287H141.29V12.3625H142.405V15.4812C142.569 15.2138 142.802 14.9944 143.08 14.8457C143.359 14.697 143.673 14.6244 143.989 14.6357C145.105 14.6357 145.785 15.4922 145.785 16.8319L145.752 19.9177Z" fill="#364364"/>
<path id="Vector_24" d="M151.728 17.6115H148.226C148.217 17.8233 148.254 18.0346 148.335 18.2311C148.416 18.4276 148.539 18.6047 148.695 18.7504C148.852 18.8961 149.038 19.0071 149.242 19.0758C149.446 19.1446 149.662 19.1695 149.877 19.1489C150.36 19.1549 150.84 19.073 151.293 18.9073L151.472 19.7089C150.913 19.9334 150.313 20.0418 149.709 20.0274C149.355 20.0544 148.999 20.005 148.667 19.8827C148.334 19.7604 148.032 19.5682 147.783 19.3193C147.533 19.0705 147.342 18.7712 147.222 18.4421C147.102 18.113 147.056 17.7621 147.088 17.4138C147.053 17.0679 147.09 16.7185 147.198 16.3876C147.306 16.0566 147.483 15.7511 147.716 15.4903C147.95 15.2295 148.235 15.019 148.555 14.8719C148.875 14.7248 149.222 14.6443 149.575 14.6355C149.892 14.6332 150.206 14.6975 150.496 14.824C150.785 14.9504 151.044 15.1362 151.256 15.369C151.467 15.6017 151.625 15.8761 151.72 16.1737C151.815 16.4714 151.844 16.7856 151.806 17.0953C151.801 17.2698 151.775 17.4431 151.728 17.6115ZM150.613 16.7879C150.613 15.9862 150.2 15.4262 149.497 15.4262C149.148 15.4512 148.822 15.6056 148.584 15.8583C148.346 16.111 148.214 16.4432 148.215 16.7879H150.613Z" fill="#364364"/>
</g>
<rect x="0.5" y="0.5" width="193" height="55" rx="2.5" stroke="#667695"/>
</g>
</svg>
