<svg width="32" height="32" viewBox="0 0 32 32" fill="none" xmlns="http://www.w3.org/2000/svg">
<path d="M28.5501 5.98164C27.4881 4.01759 26.1448 2.36315 24.7476 1.30293C23.0977 0.0509942 21.445 -0.314186 20.0943 0.274465C19.2049 0.661899 18.5296 1.41782 18.1068 2.4828C16.7187 2.12768 15.2898 2.11981 13.8964 2.46167C13.4723 1.40795 12.7998 0.659273 11.9172 0.274715C10.5758 -0.310185 8.93472 0.0463685 7.29604 1.27862C5.91445 2.31746 4.58081 3.94202 3.51972 5.87381C1.39865 7.01704 0 9.24913 0 11.7663C0 14.906 2.17358 17.5748 5.14659 18.2765C4.52274 23.5932 4.55731 23.2695 4.55731 23.3543C4.55731 28.4616 10.9183 32 15.9637 32C20.9976 32 27.3701 28.47 27.3701 23.3543C27.3701 23.2672 27.4017 23.5728 26.78 18.2647C29.7202 17.5477 31.8798 14.8999 31.8798 11.7663C31.8799 9.36727 30.6115 7.17769 28.5501 5.98164ZM1.87534 11.7663C1.87534 9.92461 2.94951 8.21916 4.61194 7.42154C4.79297 7.33465 4.94137 7.19201 5.0352 7.01448C5.99178 5.20564 7.19496 3.70086 8.42314 2.77728C9.04574 2.30915 10.2302 1.58479 11.1679 1.99366C11.6314 2.19557 11.9335 2.63245 12.1309 3.09714C8.74288 4.72645 6.43303 8.04076 5.87545 12.0764C5.87145 12.1052 5.67704 13.7576 5.3675 16.3954C3.35057 15.8144 1.87534 13.9314 1.87534 11.7663ZM15.94 22.2741L14.5314 21.0907C14.2487 20.8532 14.2301 20.5429 14.307 20.3318C14.3609 20.1838 14.5148 19.9357 14.9398 19.9357H16.9401C17.365 19.9357 17.5186 20.1832 17.5724 20.3307C17.6495 20.5424 17.6312 20.8533 17.3485 21.0908L15.94 22.2741ZM16.8776 30.081V23.9356L18.5548 22.5265C20.3584 21.0112 19.403 18.0604 16.9401 18.0604C14.1916 18.0604 15.1244 18.0581 14.9257 18.0604C12.475 18.0722 11.5233 21.0127 13.3251 22.5265L15.0023 23.9356V30.0765C10.9308 29.6796 6.47747 26.8581 6.43303 23.4063C7.61002 13.3726 7.72729 12.3793 7.7291 12.3612C8.28912 9.05197 10.3691 5.71585 13.4961 4.53461C13.6788 4.49123 15.7467 3.56402 18.3377 4.50892C18.3731 4.52498 18.4102 4.53823 18.4482 4.54998C21.2185 5.61196 23.417 8.41375 24.1455 12.0769C24.2993 13.1543 24.1911 12.2948 25.4946 23.4063C25.4498 26.8716 20.962 29.7015 16.8776 30.081ZM26.5598 16.3851C26.4243 15.2293 26.0674 12.1306 25.9901 11.7383C25.2854 8.15971 23.1657 4.75326 19.8654 3.13358C20.0625 2.65395 20.3681 2.20057 20.8433 1.9936C21.7897 1.58135 22.9855 2.31977 23.6141 2.79672C24.8497 3.73436 26.0552 5.25465 27.0099 7.07899C27.0972 7.2577 27.2398 7.40523 27.4181 7.49837C29.0134 8.33187 30.0045 9.96717 30.0045 11.7662C30.0046 13.948 28.5757 15.7967 26.5598 16.3851Z" fill="#755CDA"/>
<path d="M12.1069 11.0265C11.589 11.0265 11.1692 11.4463 11.1692 11.9642V13.0662C11.1692 13.584 11.589 14.0038 12.1069 14.0038C12.6247 14.0038 13.0445 13.584 13.0445 13.0662V11.9642C13.0445 11.4463 12.6247 11.0265 12.1069 11.0265Z" fill="#755CDA"/>
<path d="M19.2696 11.0265C18.7518 11.0265 18.332 11.4463 18.332 11.9642V13.0662C18.332 13.584 18.7518 14.0038 19.2696 14.0038C19.7875 14.0038 20.2073 13.584 20.2073 13.0662V11.9642C20.2073 11.4463 19.7875 11.0265 19.2696 11.0265Z" fill="#755CDA"/>
</svg>
