<svg width="192" height="56" viewBox="0 0 192 56" fill="none" xmlns="http://www.w3.org/2000/svg">
<path d="M36 12.1108V26.6344V41.1579L50.5541 26.6344L36 12.1108Z" fill="url(#paint0_linear)"/>
<path d="M54.4673 22.7362L48.5975 19.3221L36 12V12.1098L50.5541 26.6333L54.4673 22.7362Z" fill="url(#paint1_linear)"/>
<path d="M36 41.1569V41.2667L48.5975 33.9445L54.4673 30.5414L50.5541 26.6334L36 41.1569Z" fill="url(#paint2_linear)"/>
<path d="M54.4669 22.7363L50.5537 26.6334L54.4669 30.5414L61.1842 26.6334L54.4669 22.7363Z" fill="url(#paint3_linear)"/>
<path d="M75.763 12.5598C76.1449 12.5562 76.5233 12.6353 76.8747 12.792C77.2261 12.9488 77.5428 13.1799 77.8051 13.4709L77.1349 14.2613C76.9611 14.0669 76.7498 13.9135 76.5151 13.8113C76.2803 13.7091 76.0275 13.6604 75.7735 13.6685C74.5587 13.6685 73.7419 14.6565 73.7419 16.2703C73.7419 17.884 74.475 18.8939 75.8363 18.8939C76.1864 18.9096 76.5307 18.7971 76.8102 18.5756V17.0167H75.5326V15.9739H77.9098V19.1354C77.2984 19.6953 76.512 20.0001 75.7002 19.9917C73.878 19.9917 72.4957 18.6744 72.4957 16.2922C72.4516 15.8166 72.5035 15.3365 72.6481 14.8833C72.7927 14.4301 73.0267 14.0139 73.3349 13.6618C73.6432 13.3097 74.0187 13.0296 74.437 12.8397C74.8554 12.6498 75.3072 12.5545 75.763 12.5598Z" fill="#364364"/>
<path d="M81.3344 14.3491C82.7272 14.3491 83.4288 15.4468 83.4288 16.9069C83.4493 17.1039 83.4493 17.3027 83.4288 17.4997H80.1092C80.1119 17.7048 80.1535 17.9074 80.2315 18.0955C80.3096 18.2837 80.4225 18.4537 80.5638 18.5957C80.7051 18.7377 80.8719 18.8488 81.0545 18.9226C81.2372 18.9964 81.432 19.0314 81.6276 19.0256C82.0547 19.0245 82.4713 18.8866 82.8215 18.6304L83.2508 19.4317C82.7304 19.8 82.1193 20.0021 81.4915 20.0136C81.1428 20.0226 80.7962 19.9545 80.4743 19.8136C80.1524 19.6728 79.8624 19.4624 79.6233 19.1962C79.3842 18.93 79.2013 18.614 79.0865 18.2687C78.9718 17.9234 78.9277 17.5566 78.9573 17.1923C78.9287 16.8406 78.9682 16.4864 79.0732 16.1511C79.1783 15.8157 79.3469 15.506 79.5689 15.2406C79.7908 14.9751 80.0616 14.7593 80.3649 14.6061C80.6683 14.4529 80.9981 14.3655 81.3344 14.3491ZM82.3816 16.6983C82.3816 15.842 82.036 15.3261 81.3344 15.3261C80.6328 15.3261 80.2348 15.7871 80.1092 16.6873L82.3816 16.6983Z" fill="#364364"/>
<path d="M84.6334 15.4689H83.9004V14.5358H84.6963L84.8429 13.0648H85.8901V14.4809H87.1991V15.4799H85.8482V18.0487C85.8482 18.6854 86.0786 18.9928 86.5708 18.9928C86.7544 18.9877 86.9355 18.9468 87.1049 18.872L87.3143 19.8051C86.9778 19.9304 86.6241 19.9971 86.2671 20.0027C85.0733 20.0027 84.6334 19.2123 84.6334 18.0487V15.4689Z" fill="#364364"/>
<path d="M90.2468 12.8453C90.2342 12.689 90.2668 12.5323 90.3404 12.3958C90.4141 12.2593 90.5253 12.1492 90.6595 12.08C90.7938 12.0108 90.9449 11.9856 91.093 12.0079C91.2411 12.0301 91.3794 12.0986 91.4897 12.2045C91.6001 12.3104 91.6774 12.4488 91.7115 12.6015C91.7457 12.7542 91.7351 12.9142 91.6812 13.0604C91.6272 13.2067 91.5324 13.3326 91.4092 13.4215C91.2859 13.5104 91.1399 13.5583 90.9903 13.5588C90.8961 13.5663 90.8015 13.5535 90.7122 13.5212C90.6229 13.4888 90.5409 13.4377 90.4712 13.3708C90.4015 13.3039 90.3457 13.2228 90.3071 13.1324C90.2685 13.042 90.248 12.9443 90.2468 12.8453ZM90.3829 14.5029H91.6291V19.893H90.3829V14.5029Z" fill="#364364"/>
<path d="M93.3043 15.4689H92.5713V14.5358H93.3672L93.5138 13.0648H94.561V14.4809H95.8176V15.4799H94.5191V18.0487C94.5191 18.6854 94.7495 18.9928 95.2417 18.9928C95.4253 18.9877 95.6064 18.9468 95.7758 18.872L95.9852 19.8051C95.6487 19.9304 95.295 19.9971 94.938 20.0027C93.7442 20.0027 93.3043 19.2123 93.3043 18.0487V15.4689Z" fill="#364364"/>
<path d="M101.158 14.3491C101.5 14.3538 101.838 14.4324 102.149 14.5799C102.461 14.7273 102.741 14.9406 102.971 15.2063C103.201 15.472 103.376 15.7845 103.486 16.1243C103.595 16.4641 103.637 16.8239 103.608 17.1813C103.63 17.532 103.583 17.8837 103.47 18.2147C103.357 18.5456 103.181 18.8487 102.951 19.1052C102.722 19.3617 102.445 19.5662 102.138 19.706C101.83 19.8458 101.498 19.9179 101.163 19.9179C100.828 19.9179 100.496 19.8458 100.188 19.706C99.8808 19.5662 99.6038 19.3617 99.3746 19.1052C99.1454 18.8487 98.9688 18.5456 98.8558 18.2147C98.7429 17.8837 98.6959 17.532 98.7178 17.1813C98.6875 16.8244 98.7278 16.4649 98.8362 16.1251C98.9447 15.7853 99.1189 15.4727 99.348 15.2068C99.577 14.9409 99.856 14.7275 100.167 14.5799C100.479 14.4323 100.816 14.3537 101.158 14.3491ZM101.158 18.9707C101.912 18.9707 102.373 18.2571 102.373 17.1813C102.373 16.1055 101.912 15.37 101.158 15.37C100.404 15.37 100.006 16.1384 100.006 17.1703C100.006 18.2022 100.404 18.9597 101.158 18.9597V18.9707Z" fill="#364364"/>
<path d="M104.803 14.4808H105.798L105.881 15.2053C106.093 14.9508 106.351 14.7438 106.641 14.5966C106.931 14.4495 107.246 14.3653 107.567 14.3491C108.667 14.3491 109.149 15.1285 109.149 16.4897V19.8709H107.986V16.6434C107.986 15.7542 107.745 15.4249 107.18 15.4249C106.95 15.4429 106.727 15.5119 106.525 15.6274C106.323 15.7428 106.146 15.9021 106.007 16.0945V19.8599H104.803V14.4808Z" fill="#364364"/>
<path d="M132.732 38.7965C132.216 38.8035 131.706 38.6949 131.234 38.4781C130.781 38.2636 130.39 37.9264 130.103 37.5011H130.009C130.069 37.9852 130.101 38.4729 130.103 38.9611V42.5728H128.836V29.8606H129.883L130.061 31.0572H130.124C130.412 30.6114 130.805 30.252 131.265 30.0143C131.733 29.795 132.241 29.6863 132.753 29.6959C133.241 29.6714 133.728 29.7667 134.176 29.9745C134.623 30.1822 135.018 30.4966 135.329 30.8925C135.982 31.8695 136.299 33.0499 136.229 34.2407C136.298 35.438 135.973 36.6239 135.308 37.5999C134.997 37.9958 134.602 38.3102 134.155 38.5179C133.708 38.7256 133.22 38.821 132.732 38.7965ZM132.543 30.8266C132.2 30.7934 131.855 30.8435 131.533 30.9729C131.212 31.1024 130.923 31.3078 130.69 31.5731C130.252 32.2749 130.046 33.1079 130.103 33.9443V34.2407C130.027 35.1654 130.232 36.0916 130.69 36.8863C130.921 37.1663 131.213 37.3848 131.54 37.5241C131.868 37.6634 132.222 37.7195 132.574 37.6877C132.909 37.6987 133.24 37.6197 133.537 37.4583C133.834 37.2969 134.087 37.0584 134.271 36.7656C134.718 36.0058 134.934 35.1212 134.889 34.2297C134.942 33.3443 134.725 32.4642 134.271 31.7158C134.076 31.4287 133.816 31.197 133.514 31.0417C133.213 30.8865 132.879 30.8125 132.543 30.8266Z" fill="#364364"/>
<path d="M139.14 38.6318H137.873V26.1721H139.14V38.6318Z" fill="#364364"/>
<path d="M146.428 38.632L146.176 37.3805H146.082C145.755 37.8444 145.328 38.2205 144.836 38.4783C144.344 38.6891 143.817 38.7901 143.286 38.7747C142.579 38.8169 141.884 38.5777 141.338 38.105C141.095 37.8591 140.906 37.5612 140.783 37.2315C140.66 36.9018 140.607 36.5483 140.626 36.1949C140.626 34.4238 141.977 33.4944 144.679 33.4066H146.103V32.8577C146.147 32.3107 145.994 31.7663 145.674 31.3318C145.493 31.1528 145.278 31.0162 145.044 30.931C144.809 30.8458 144.56 30.814 144.312 30.8378C143.485 30.8722 142.676 31.101 141.945 31.5074L141.558 30.4865C141.986 30.2482 142.439 30.064 142.909 29.9376C143.391 29.8061 143.887 29.7397 144.385 29.74C145.184 29.6688 145.978 29.9202 146.606 30.4426C146.863 30.7369 147.061 31.0837 147.185 31.4615C147.309 31.8392 147.358 32.2398 147.328 32.6381V38.632H146.428ZM143.569 37.6989C143.907 37.7194 144.245 37.6699 144.565 37.5531C144.885 37.4363 145.18 37.2546 145.433 37.0182C145.665 36.766 145.844 36.4659 145.959 36.1371C146.075 35.8082 146.124 35.4578 146.103 35.1081V34.3177H144.836C144.082 34.2926 143.334 34.4623 142.658 34.8117C142.438 34.9531 142.26 35.1546 142.142 35.3945C142.024 35.6344 141.97 35.9036 141.987 36.1729C141.974 36.3772 142.005 36.5819 142.077 36.772C142.15 36.9621 142.262 37.1325 142.406 37.2707C142.73 37.5583 143.144 37.7107 143.569 37.6989Z" fill="#364364"/>
<path d="M148.104 29.8608H149.466L151.319 34.8666C151.62 35.6713 151.869 36.4966 152.063 37.3366H152.126C152.189 37.0622 152.335 36.6011 152.545 35.9424C152.754 35.2838 153.445 33.2529 154.639 29.8608H156L152.367 39.8505C152.127 40.6517 151.698 41.3766 151.12 41.9582C150.628 42.3801 150.007 42.6022 149.372 42.584C148.971 42.5998 148.571 42.5666 148.178 42.4852V41.3874C148.488 41.4567 148.804 41.4899 149.12 41.4862C149.55 41.4827 149.965 41.3298 150.303 41.0517C150.64 40.7735 150.88 40.3858 150.984 39.9493L151.456 38.6978L148.104 29.8608Z" fill="#364364"/>
<path d="M109.244 30.673C109.643 30.9623 109.966 31.3537 110.182 31.81C110.397 32.2664 110.498 32.7728 110.475 33.2814C110.452 33.7901 110.306 34.2841 110.05 34.7171C109.794 35.15 109.437 35.5074 109.013 35.7557C108.876 35.8621 108.762 35.997 108.677 36.1519C108.593 36.3068 108.539 36.4784 108.521 36.6559C108.532 36.8166 108.58 36.9722 108.66 37.1097C108.74 37.2472 108.85 37.3626 108.982 37.4463L109.61 37.9622C110.036 38.2323 110.392 38.6077 110.648 39.0555C110.904 39.5033 111.051 40.0099 111.076 40.531C111.076 42.2545 109.484 44 106.468 44C103.924 44 102.709 42.7376 102.709 41.3763C102.734 40.9191 102.871 40.4764 103.108 40.0915C103.345 39.7067 103.673 39.3929 104.06 39.1808C105.097 38.6336 106.24 38.3443 107.4 38.3355C107.088 38.0025 106.902 37.5615 106.877 37.095C106.883 36.8425 106.944 36.5947 107.055 36.3705C106.866 36.3705 106.667 36.3705 106.489 36.3705C106.116 36.3913 105.742 36.3324 105.391 36.1975C105.04 36.0626 104.719 35.8544 104.447 35.5855C104.174 35.3166 103.957 34.9927 103.808 34.6332C103.659 34.2738 103.58 33.8863 103.578 33.4943C103.587 33.0243 103.691 32.5617 103.884 32.1376C104.078 31.7135 104.355 31.3376 104.699 31.0353C105.599 30.3196 106.712 29.9618 107.84 30.0253H111.443L110.322 30.684L109.244 30.673ZM107.997 38.8295C107.865 38.8192 107.732 38.8192 107.599 38.8295C106.975 38.841 106.355 38.9407 105.756 39.1259C105.345 39.2289 104.976 39.4683 104.704 39.8084C104.433 40.1485 104.273 40.5712 104.248 41.014C104.248 42.3204 105.453 43.2096 107.327 43.2096C109.013 43.2096 109.903 42.3643 109.903 41.2226C109.903 40.2895 109.327 39.8175 107.997 38.8295ZM108.5 35.3386C108.81 34.9707 108.968 34.4891 108.94 33.9993C108.94 32.682 108.186 30.6181 106.73 30.6181C106.497 30.6218 106.267 30.6776 106.056 30.7817C105.844 30.8858 105.657 31.0359 105.505 31.2219C105.229 31.6228 105.096 32.1121 105.128 32.6051C105.128 33.8346 105.809 35.8984 107.317 35.8984C107.764 35.8746 108.187 35.6747 108.5 35.3386Z" fill="#364364"/>
<path d="M98.2162 38.5331C97.6631 38.5522 97.1119 38.4545 96.5955 38.2457C96.079 38.037 95.608 37.7214 95.2103 37.3178C94.8126 36.9143 94.4965 36.431 94.2807 35.8967C94.0649 35.3624 93.9538 34.7881 93.9541 34.2079C93.9647 33.6015 94.091 33.0034 94.3256 32.449C94.5601 31.8946 94.8981 31.395 95.3197 30.9796C95.7413 30.5642 96.238 30.2416 96.7804 30.0305C97.3228 29.8195 97.9 29.7244 98.4781 29.7509C99.0267 29.7361 99.5725 29.8374 100.083 30.0487C100.593 30.26 101.058 30.577 101.449 30.9807C101.84 31.3844 102.149 31.8666 102.359 32.3984C102.568 32.9303 102.673 33.5009 102.667 34.0761C102.665 34.6785 102.546 35.2742 102.319 35.8276C102.092 36.3809 101.761 36.8806 101.346 37.2967C100.93 37.7128 100.439 38.0368 99.9011 38.2492C99.3634 38.4616 98.7904 38.5582 98.2162 38.5331ZM100.405 36.9962C100.787 36.3975 100.97 35.6841 100.929 34.9653C100.929 33.3516 100.195 30.2778 98.0278 30.2778C97.4498 30.2839 96.8929 30.5058 96.4569 30.9036C96.1774 31.1854 95.9604 31.5281 95.821 31.9074C95.6817 32.2868 95.6235 32.6936 95.6506 33.0991C95.6506 34.9104 96.5093 37.8964 98.6247 37.8964C98.9674 37.8998 99.3064 37.8204 99.6151 37.6643C99.9238 37.5082 100.194 37.2796 100.405 36.9962Z" fill="#364364"/>
<path d="M88.7377 38.5331C88.1846 38.5522 87.6333 38.4545 87.1169 38.2457C86.6005 38.037 86.1295 37.7214 85.7318 37.3178C85.3341 36.9143 85.018 36.431 84.8022 35.8967C84.5863 35.3624 84.4753 34.7881 84.4756 34.2079C84.4862 33.6015 84.6125 33.0034 84.8471 32.449C85.0816 31.8946 85.4196 31.395 85.8412 30.9796C86.2628 30.5642 86.7595 30.2416 87.3019 30.0305C87.8443 29.8195 88.4215 29.7244 88.9995 29.7509C89.5482 29.7361 90.094 29.8374 90.6045 30.0487C91.1149 30.26 91.5795 30.577 91.9705 30.9807C92.3615 31.3844 92.6708 31.8666 92.8801 32.3984C93.0893 32.9303 93.1942 33.5009 93.1884 34.0761C93.1861 34.6785 93.0679 35.2742 92.8408 35.8276C92.6138 36.3809 92.2826 36.8806 91.8671 37.2967C91.4516 37.7128 90.9603 38.0368 90.4226 38.2492C89.8849 38.4616 89.3119 38.5582 88.7377 38.5331ZM90.9264 36.9962C91.3081 36.3975 91.492 35.6841 91.45 34.9653C91.45 33.3516 90.717 30.2778 88.5492 30.2778C87.9715 30.2849 87.4148 30.5066 86.9784 30.9036C86.6983 31.1849 86.4809 31.5275 86.3415 31.907C86.2021 32.2865 86.1443 32.6935 86.1721 33.0991C86.1721 34.9104 87.0308 37.8964 89.1461 37.8964C89.4888 37.899 89.8274 37.8192 90.1361 37.6632C90.4447 37.5071 90.7151 37.2789 90.9264 36.9962Z" fill="#364364"/>
<path d="M83.1355 38.2475L80.6222 38.8513C79.6644 39.0329 78.6946 39.1356 77.7215 39.1587C76.8547 39.2195 75.9853 39.0912 75.1682 38.782C74.3511 38.4728 73.604 37.9893 72.9742 37.3621C72.3444 36.7348 71.8455 35.9775 71.509 35.1379C71.1725 34.2984 71.0058 33.3948 71.0193 32.4842C71.0193 28.9055 73.6373 25.5902 78.1194 25.5902C79.0289 25.5911 79.9341 25.7204 80.8107 25.9744C81.6445 26.1843 82.4331 26.5567 83.1355 27.0722L81.6799 28.5871L81.0621 28.7298L81.5019 27.9943C81.0271 27.444 80.4467 27.0051 79.7989 26.7062C79.151 26.4073 78.4502 26.2552 77.7424 26.2599C77.0704 26.2562 76.405 26.3987 75.7883 26.6784C75.1715 26.958 74.6168 27.3688 74.1591 27.8846C73.7015 28.4004 73.3509 29.0102 73.1295 29.6753C72.9081 30.3404 72.8207 31.0464 72.8729 31.7487C72.852 32.616 72.9964 33.479 73.2976 34.2871C73.5989 35.0951 74.051 35.8321 74.6273 36.4547C75.2037 37.0773 75.8928 37.573 76.6543 37.9129C77.4158 38.2529 78.2343 38.43 79.0619 38.4341C79.8286 38.4536 80.5901 38.2962 81.2924 37.9731V35.0091L78.643 35.1518L80.1091 34.3504H83.8372L83.3764 34.8115C83.3285 34.845 83.2878 34.8887 83.2571 34.9397C83.2265 34.9908 83.2064 35.0481 83.1984 35.1079C83.1984 35.2726 83.1984 35.8105 83.1984 35.9861L83.1355 38.2475Z" fill="#364364"/>
<path d="M114.792 37.7208C114.216 37.6659 114.091 37.5562 114.091 36.8316V26.282C114.164 25.6344 114.342 25.5246 114.886 25.1843H112.373L111.054 25.8429H112.394V37.2378C112.394 37.6001 112.321 37.6659 111.923 38.2148H115.065L115.714 37.8086L114.792 37.7208Z" fill="#364364"/>
<path d="M121.998 37.8854C121.809 37.9951 121.61 38.1269 121.422 38.2147C120.887 38.4587 120.308 38.5785 119.725 38.566C118.896 38.606 118.078 38.3549 117.4 37.8524C116.834 37.401 116.378 36.8156 116.068 36.1441C115.759 35.4725 115.605 34.7339 115.62 33.9883C115.61 33.4332 115.707 32.8817 115.904 32.3664C116.101 31.8511 116.395 31.3826 116.768 30.9885C117.141 30.5944 117.586 30.2828 118.076 30.0721C118.566 29.8614 119.091 29.7559 119.62 29.7618C120.255 29.7544 120.879 29.9331 121.422 30.2778C122.029 30.7001 122.463 31.3468 122.636 32.0891L118.531 33.8236L117.18 33.9334C117.62 36.2606 119.118 37.6109 120.772 37.6109C121.51 37.5809 122.229 37.3623 122.867 36.9742L121.998 37.8854ZM120.354 32.3965C120.689 32.2648 120.856 32.155 120.856 31.9025C120.783 31.4715 120.564 31.0827 120.238 30.8083C119.913 30.5338 119.504 30.3922 119.086 30.4095C118.791 30.4264 118.501 30.5074 118.237 30.6471C117.972 30.7869 117.738 30.9826 117.55 31.2218C117.361 31.461 117.221 31.7386 117.14 32.0371C117.058 32.3356 117.036 32.6486 117.076 32.9564C117.076 33.2637 117.076 33.5931 117.128 33.9224L120.354 32.3965Z" fill="#364364"/>
<path d="M123.63 29.8826V31.0901H123.494V29.8826H123.117V29.7618H124.018V29.8826H123.63Z" fill="#364364"/>
<path d="M125.202 31.0901V29.8716L124.846 31.0901H124.741L124.385 29.8716V31.0901H124.26V29.7618H124.48L124.804 30.8596L125.129 29.7618H125.349V31.0901H125.202Z" fill="#364364"/>
<rect x="0.5" y="0.5" width="191.001" height="55" rx="2.5" stroke="#667695"/>
<defs>
<linearGradient id="paint0_linear" x1="43.2823" y1="12.1108" x2="43.2823" y2="41.1579" gradientUnits="userSpaceOnUse">
<stop stop-color="#207CB0"/>
<stop offset="0.38" stop-color="#3CB2BF"/>
<stop offset="0.8" stop-color="#58E9CE"/>
<stop offset="1" stop-color="#63FFD4"/>
</linearGradient>
<linearGradient id="paint1_linear" x1="36" y1="19.3112" x2="54.4673" y2="19.3112" gradientUnits="userSpaceOnUse">
<stop stop-color="#4BC3AE"/>
<stop offset="1" stop-color="#DEE999"/>
</linearGradient>
<linearGradient id="paint2_linear" x1="45.2389" y1="26.6334" x2="45.2389" y2="41.2667" gradientUnits="userSpaceOnUse">
<stop stop-color="#EC403D"/>
<stop offset="0.38" stop-color="#C93B75"/>
<stop offset="0.8" stop-color="#A636AC"/>
<stop offset="1" stop-color="#9934C2"/>
</linearGradient>
<linearGradient id="paint3_linear" x1="55.869" y1="22.7363" x2="55.869" y2="30.5305" gradientUnits="userSpaceOnUse">
<stop stop-color="#FF8877"/>
<stop offset="0.61" stop-color="#FFB175"/>
<stop offset="1" stop-color="#FFC774"/>
</linearGradient>
</defs>
</svg>
