<svg width="12" height="10" viewBox="0 0 12 10" fill="none" xmlns="http://www.w3.org/2000/svg">
<path d="M9.75 9C10.3594 9 10.8984 8.78906 11.3438 8.34375C11.7656 7.92188 12 7.38281 12 6.75V2.25C12 1.64062 11.7656 1.10156 11.3438 0.65625C10.8984 0.234375 10.3594 0 9.75 0H7.78125C7.6875 0 7.61719 0.046875 7.57031 0.09375C7.52344 0.140625 7.5 0.210938 7.5 0.28125V1.21875C7.5 1.3125 7.52344 1.38281 7.57031 1.42969C7.61719 1.47656 7.6875 1.5 7.78125 1.5H9.75C9.9375 1.5 10.125 1.59375 10.2656 1.73438C10.4062 1.875 10.5 2.0625 10.5 2.25V6.75C10.5 6.96094 10.4062 7.14844 10.2656 7.28906C10.125 7.42969 9.9375 7.5 9.75 7.5H7.78125C7.6875 7.5 7.61719 7.54688 7.57031 7.59375C7.52344 7.64062 7.5 7.71094 7.5 7.78125V8.71875C7.5 8.8125 7.52344 8.88281 7.57031 8.92969C7.61719 8.97656 7.6875 9 7.78125 9H9.75ZM8.64844 4.28906C8.74219 4.40625 8.8125 4.54688 8.8125 4.6875C8.8125 4.85156 8.74219 4.99219 8.64844 5.08594L4.71094 9.02344C4.59375 9.14062 4.45312 9.1875 4.3125 9.1875C4.14844 9.1875 4.00781 9.14062 3.91406 9.02344C3.79688 8.92969 3.75 8.78906 3.75 8.625V6.375H0.5625C0.398438 6.375 0.257812 6.32812 0.164062 6.21094C0.046875 6.11719 0 5.97656 0 5.8125V3.5625C0 3.42188 0.046875 3.28125 0.164062 3.16406C0.257812 3.07031 0.398438 3 0.5625 3H3.75V0.75C3.75 0.609375 3.79688 0.46875 3.91406 0.351562C4.00781 0.257812 4.14844 0.1875 4.3125 0.1875C4.45312 0.1875 4.59375 0.257812 4.71094 0.351562L8.64844 4.28906Z" fill="#364364"/>
</svg>
