<svg width="24" height="34" viewBox="0 0 24 34" fill="none" xmlns="http://www.w3.org/2000/svg">
<path d="M22.5971 29.3167V32.4667C22.5971 32.7612 22.3583 33 22.0638 33C21.7693 33 21.5306 32.7612 21.5306 32.4667V29.3167C21.5306 26.864 19.5458 24.8791 17.093 24.8792C15.9324 24.8792 14.8794 24.2879 14.2761 23.2975C14.1229 23.046 14.2025 22.7179 14.4541 22.5647C14.7056 22.4114 15.0337 22.4912 15.1869 22.7427C15.595 23.4127 16.3075 23.8127 17.093 23.8127C20.135 23.8125 22.5971 26.2743 22.5971 29.3167ZM13.2913 23.9712C13.354 24.2589 13.1715 24.543 12.8838 24.6058C11.4804 24.9115 10.053 24.6054 8.91656 23.8297C7.79151 25.0354 6.30517 24.8792 6.50414 24.8792C4.05147 24.8791 2.06653 26.8638 2.06653 29.3167V32.4667C2.06653 32.7612 1.82776 33 1.53326 33C1.23877 33 1 32.7612 1 32.4667V29.3167C1 26.2747 3.46161 23.8127 6.50401 23.8127C7.73465 23.8127 8.73232 22.8211 8.73232 21.5902V21.4497C6.40469 20.3367 4.77091 17.9979 4.67132 15.2743C3.71344 15.044 2.99974 14.1867 2.99974 13.1666V10.4021C2.97061 9.04893 3.17151 5.65985 5.64259 3.27789C8.69386 0.336547 13.5871 0.523389 17.1851 2.25549C17.5358 2.42447 17.5891 2.89828 17.2979 3.14364C19.1206 3.58825 20.6924 4.70877 21.7022 6.31243C21.7543 6.39502 21.8498 6.52467 21.8249 6.73151C21.8094 6.86022 21.7711 6.96914 21.6719 7.0698C21.022 7.72891 20.6641 8.60233 20.6641 9.52921V13.1667C20.6641 13.4612 20.4253 13.7 20.1308 13.7C19.8363 13.7 19.5976 13.4612 19.5976 13.1667V9.52921C19.5976 8.46021 19.9628 7.44555 20.6336 6.63045C19.6112 5.16825 18.016 4.22784 16.212 4.03466L15.2747 3.93427C14.7267 3.87562 14.6191 3.12058 15.1285 2.91094L15.5548 2.73543C10.0031 0.80002 4.0662 2.95047 4.0662 10.3963V13.1666C4.0662 13.5897 4.3099 13.9575 4.66612 14.1422V10.6851C4.66612 8.62686 6.3407 6.95228 8.39896 6.95228H15.1981C17.2563 6.95228 18.9309 8.62672 18.9309 10.6849V15.0512C18.9309 19.6889 14.399 23.2115 9.78745 21.8539C9.75745 22.2343 9.66273 22.6015 9.50842 22.9428C10.4055 23.5588 11.5384 23.8073 12.6567 23.5636C12.9444 23.501 13.2285 23.6834 13.2913 23.9712ZM11.7985 21.0766C15.1433 21.0766 17.8644 18.3554 17.8644 15.0107V10.6849C17.8644 9.21485 16.6683 8.0188 15.1981 8.0188H8.39896C6.92875 8.0188 5.73265 9.21491 5.73265 10.6851V15.0107C5.73265 18.3554 8.45375 21.0766 11.7985 21.0766ZM17.1978 30.267H15.598C15.3035 30.267 15.0648 30.5058 15.0648 30.8003C15.0648 31.0948 15.3035 31.3335 15.598 31.3335H17.1978C17.4923 31.3335 17.7311 31.0948 17.7311 30.8003C17.7311 30.5058 17.4923 30.267 17.1978 30.267Z" fill="#755CDA" stroke="#755CDA"/>
</svg>
