<svg width="35" height="36" viewBox="0 0 35 36" fill="none" xmlns="http://www.w3.org/2000/svg">
<path d="M35 20.5V15.5C35 14.8229 34.7526 14.237 34.2578 13.7422C33.763 13.2474 33.1771 13 32.5 13H22.5V3C22.5 2.32292 22.2526 1.73698 21.7578 1.24219C21.263 0.747397 20.6771 0.500002 20 0.500002H15C14.3229 0.500002 13.737 0.747397 13.2422 1.24219C12.7474 1.73698 12.5 2.32292 12.5 3V13H2.5C1.82292 13 1.23698 13.2474 0.742188 13.7422C0.247396 14.237 0 14.8229 0 15.5V20.5C0 21.1771 0.247396 21.763 0.742188 22.2578C1.23698 22.7526 1.82292 23 2.5 23H12.5V33C12.5 33.6771 12.7474 34.263 13.2422 34.7578C13.737 35.2526 14.3229 35.5 15 35.5H20C20.6771 35.5 21.263 35.2526 21.7578 34.7578C22.2526 34.263 22.5 33.6771 22.5 33V23H32.5C33.1771 23 33.763 22.7526 34.2578 22.2578C34.7526 21.763 35 21.1771 35 20.5Z" fill="#DFE4EC"/>
</svg>
