<svg width="48" height="60" viewBox="0 0 48 60" fill="none" xmlns="http://www.w3.org/2000/svg">
<rect width="48" height="60" rx="3" fill="#DFE4EC"/>
<path d="M31.0346 24.9286C30.6358 25.5119 30.1536 26.0089 29.5882 26.4196C29.5941 26.503 29.5971 26.628 29.5971 26.7946C29.5971 27.5685 29.484 28.3423 29.2578 29.1161C29.0316 29.8839 28.6864 30.622 28.2221 31.3304C27.7638 32.0387 27.2161 32.6667 26.5792 33.2143C25.9423 33.756 25.1745 34.1905 24.2757 34.5179C23.3769 34.8393 22.4156 35 21.3917 35C19.7786 35 18.3025 34.5685 16.9632 33.7054C17.1715 33.7292 17.4036 33.7411 17.6596 33.7411C18.9989 33.7411 20.1923 33.3304 21.24 32.5089C20.615 32.497 20.0554 32.3065 19.5614 31.9375C19.0673 31.5625 18.7281 31.0863 18.5435 30.5089C18.74 30.5387 18.9215 30.5536 19.0882 30.5536C19.3441 30.5536 19.5971 30.5208 19.8471 30.4554C19.1804 30.3185 18.6269 29.9881 18.1864 29.4643C17.7519 28.9345 17.5346 28.3214 17.5346 27.625V27.5893C17.9394 27.8155 18.3739 27.9375 18.8382 27.9554C18.4453 27.6935 18.1328 27.3512 17.9007 26.9286C17.6685 26.506 17.5525 26.0476 17.5525 25.5536C17.5525 25.0298 17.6834 24.5446 17.9453 24.0982C18.6656 24.9851 19.5406 25.6964 20.5703 26.2321C21.606 26.7619 22.7132 27.0565 23.8917 27.1161C23.8441 26.8899 23.8203 26.6696 23.8203 26.4554C23.8203 25.6577 24.1001 24.9792 24.6596 24.4196C25.2251 23.8542 25.9066 23.5714 26.7042 23.5714C27.5376 23.5714 28.24 23.875 28.8114 24.4821C29.4602 24.3571 30.0703 24.125 30.6417 23.7857C30.4215 24.4702 29.9989 25 29.3739 25.375C29.9275 25.3155 30.481 25.1667 31.0346 24.9286Z" fill="#667695"/>
</svg>
