<svg width="118" height="18" viewBox="0 0 118 18" fill="none" xmlns="http://www.w3.org/2000/svg">
<path d="M12.9054 5.28649L7.39351 17.478H6.20238L0.713867 5.28649H1.9517L6.80962 16.1935L11.7143 5.28649H12.9054Z" fill="#2D3348"/>
<path d="M19.2042 5.19307C20.7145 5.19307 21.8745 5.58233 22.6842 6.36084C23.4938 7.12379 23.8987 8.25263 23.8987 9.74737V17.478H22.7776V15.306C22.3883 16.0222 21.82 16.5827 21.0727 16.9875C20.3253 17.3768 19.43 17.5714 18.3868 17.5714C17.0322 17.5714 15.9578 17.2522 15.1637 16.6139C14.3852 15.9755 13.996 15.1347 13.996 14.0915C13.996 13.0794 14.3541 12.262 15.0703 11.6392C15.8021 11.0008 16.9621 10.6816 18.5503 10.6816H22.7309V9.70066C22.7309 8.56403 22.4195 7.69988 21.7967 7.10821C21.1894 6.51654 20.2941 6.22071 19.1108 6.22071C18.3011 6.22071 17.5226 6.36084 16.7753 6.64111C16.0435 6.92137 15.4206 7.29506 14.9068 7.76217L14.3229 6.92137C14.9302 6.37641 15.662 5.95602 16.5184 5.66018C17.3747 5.34878 18.27 5.19307 19.2042 5.19307ZM18.5503 16.6139C19.5623 16.6139 20.4187 16.3803 21.1194 15.9132C21.8356 15.4461 22.3728 14.7688 22.7309 13.8813V11.5924H18.5736C17.3747 11.5924 16.5028 11.8104 15.9578 12.2464C15.4284 12.6824 15.1637 13.2818 15.1637 14.0448C15.1637 14.8388 15.4596 15.4694 16.0512 15.9366C16.6429 16.3881 17.4759 16.6139 18.5503 16.6139Z" fill="#2D3348"/>
<path d="M33.5674 17.5714C32.3841 17.5714 31.3253 17.3067 30.3911 16.7773C29.4569 16.248 28.7251 15.5162 28.1957 14.5819C27.6663 13.6322 27.4016 12.5656 27.4016 11.3823C27.4016 10.1833 27.6663 9.11678 28.1957 8.18256C28.7251 7.23278 29.4569 6.50097 30.3911 5.98716C31.3253 5.45777 32.3841 5.19307 33.5674 5.19307C34.5483 5.19307 35.4358 5.3877 36.2299 5.77696C37.0396 6.15064 37.6935 6.70339 38.1918 7.43519L37.3276 8.06579C36.8917 7.45855 36.3467 7.00701 35.6928 6.71117C35.0544 6.39977 34.3459 6.24407 33.5674 6.24407C32.6176 6.24407 31.7613 6.46205 30.9983 6.89802C30.251 7.31841 29.6593 7.91787 29.2233 8.69638C28.8029 9.47489 28.5927 10.3702 28.5927 11.3823C28.5927 12.3943 28.8029 13.2896 29.2233 14.0681C29.6593 14.8466 30.251 15.4539 30.9983 15.8898C31.7613 16.3102 32.6176 16.5204 33.5674 16.5204C34.3459 16.5204 35.0544 16.3725 35.6928 16.0767C36.3467 15.7653 36.8917 15.306 37.3276 14.6987L38.1918 15.3293C37.6935 16.0611 37.0396 16.6216 36.2299 17.0109C35.4358 17.3846 34.5483 17.5714 33.5674 17.5714Z" fill="#2D3348"/>
<path d="M46.3171 17.5714C45.1338 17.5714 44.075 17.3067 43.1408 16.7773C42.2065 16.248 41.4747 15.5162 40.9454 14.5819C40.416 13.6322 40.1513 12.5656 40.1513 11.3823C40.1513 10.1833 40.416 9.11678 40.9454 8.18256C41.4747 7.23278 42.2065 6.50097 43.1408 5.98716C44.075 5.45777 45.1338 5.19307 46.3171 5.19307C47.298 5.19307 48.1855 5.3877 48.9796 5.77696C49.7893 6.15064 50.4432 6.70339 50.9415 7.43519L50.0773 8.06579C49.6413 7.45855 49.0964 7.00701 48.4424 6.71117C47.8041 6.39977 47.0956 6.24407 46.3171 6.24407C45.3673 6.24407 44.5109 6.46205 43.748 6.89802C43.0006 7.31841 42.409 7.91787 41.973 8.69638C41.5526 9.47489 41.3424 10.3702 41.3424 11.3823C41.3424 12.3943 41.5526 13.2896 41.973 14.0681C42.409 14.8466 43.0006 15.4539 43.748 15.8898C44.5109 16.3102 45.3673 16.5204 46.3171 16.5204C47.0956 16.5204 47.8041 16.3725 48.4424 16.0767C49.0964 15.7653 49.6413 15.306 50.0773 14.6987L50.9415 15.3293C50.4432 16.0611 49.7893 16.6216 48.9796 17.0109C48.1855 17.3846 47.298 17.5714 46.3171 17.5714Z" fill="#2D3348"/>
<path d="M54.4375 5.28649H55.6052V17.478H54.4375V5.28649ZM55.0214 2.32036C54.7567 2.32036 54.5309 2.23472 54.344 2.06345C54.1572 1.87661 54.0638 1.65084 54.0638 1.38614C54.0638 1.12145 54.1572 0.895681 54.344 0.708837C54.5309 0.521995 54.7567 0.428574 55.0214 0.428574C55.286 0.428574 55.5118 0.521995 55.6987 0.708837C55.8855 0.880111 55.9789 1.09809 55.9789 1.36279C55.9789 1.62748 55.8855 1.85325 55.6987 2.0401C55.5118 2.22694 55.286 2.32036 55.0214 2.32036Z" fill="#2D3348"/>
<path d="M66.4828 5.19307C68.0087 5.19307 69.2154 5.63683 70.1029 6.52433C70.9904 7.41183 71.4342 8.6886 71.4342 10.3546V17.478H70.2664V10.448C70.2664 9.07785 69.9161 8.03465 69.2154 7.31841C68.5303 6.60218 67.565 6.24407 66.3193 6.24407C64.8869 6.24407 63.758 6.67225 62.9328 7.52861C62.1076 8.38498 61.695 9.53718 61.695 10.9852V17.478H60.5272V5.28649H61.6483V7.92565C62.0687 7.06929 62.6915 6.39977 63.5167 5.91709C64.3575 5.43441 65.3462 5.19307 66.4828 5.19307Z" fill="#2D3348"/>
<path d="M76.2419 5.28649H77.4097V17.478H76.2419V5.28649ZM76.8258 2.32036C76.5611 2.32036 76.3353 2.23472 76.1485 2.06345C75.9616 1.87661 75.8682 1.65084 75.8682 1.38614C75.8682 1.12145 75.9616 0.895681 76.1485 0.708837C76.3353 0.521995 76.5611 0.428574 76.8258 0.428574C77.0905 0.428574 77.3163 0.521995 77.5031 0.708837C77.6899 0.880111 77.7834 1.09809 77.7834 1.36279C77.7834 1.62748 77.6899 1.85325 77.5031 2.0401C77.3163 2.22694 77.0905 2.32036 76.8258 2.32036Z" fill="#2D3348"/>
<path d="M93.0051 5.28649V17.478H91.884V14.8622C91.4792 15.7186 90.8797 16.3881 90.0856 16.8708C89.2916 17.3379 88.3573 17.5714 87.283 17.5714C85.6948 17.5714 84.4492 17.1277 83.5461 16.2402C82.6431 15.3527 82.1915 14.0759 82.1915 12.4099V5.28649H83.3593V12.3165C83.3593 13.6866 83.7096 14.7299 84.4103 15.4461C85.1109 16.1623 86.0996 16.5204 87.3764 16.5204C88.7466 16.5204 89.8287 16.0923 90.6228 15.2359C91.4325 14.3795 91.8373 13.2273 91.8373 11.7793V5.28649H93.0051Z" fill="#2D3348"/>
<path d="M113.136 5.19307C114.646 5.19307 115.83 5.63683 116.686 6.52433C117.558 7.41183 117.994 8.6886 117.994 10.3546V17.478H116.826V10.448C116.826 9.07785 116.492 8.03465 115.822 7.31841C115.152 6.60218 114.218 6.24407 113.019 6.24407C111.649 6.24407 110.559 6.67225 109.75 7.52861C108.956 8.38498 108.558 9.53718 108.558 10.9852V17.478H107.391V10.448C107.391 9.07785 107.056 8.03465 106.386 7.31841C105.717 6.60218 104.783 6.24407 103.584 6.24407C102.214 6.24407 101.124 6.67225 100.314 7.52861C99.5199 8.38498 99.1229 9.53718 99.1229 10.9852V17.478H97.9551V5.28649H99.0762V7.9023C99.481 7.04593 100.08 6.3842 100.875 5.91709C101.684 5.43441 102.642 5.19307 103.747 5.19307C104.853 5.19307 105.787 5.4422 106.55 5.94045C107.328 6.43869 107.881 7.1705 108.208 8.13585C108.613 7.23278 109.244 6.51654 110.1 5.98716C110.972 5.45777 111.984 5.19307 113.136 5.19307Z" fill="#2D3348"/>
</svg>
