<svg width="48" height="60" viewBox="0 0 48 60" fill="none" xmlns="http://www.w3.org/2000/svg">
<rect width="48" height="60" rx="3" fill="#DFE4EC"/>
<path d="M32.5458 25.9286C32.6827 26.3095 32.2362 27.1845 31.2065 28.5536C31.0636 28.744 30.8702 28.997 30.6261 29.3125C30.388 29.6161 30.2243 29.8304 30.135 29.9554C30.0458 30.0804 29.9535 30.2292 29.8583 30.4018C29.769 30.5685 29.7333 30.6935 29.7511 30.7768C29.7749 30.8542 29.8136 30.9554 29.8672 31.0804C29.9267 31.2054 30.0249 31.3333 30.1618 31.4643C30.2987 31.5952 30.4684 31.753 30.6708 31.9375C30.6946 31.9494 30.7095 31.9613 30.7154 31.9732C31.5547 32.753 32.1231 33.4107 32.4208 33.9464C32.4386 33.9762 32.4565 34.0149 32.4743 34.0625C32.4981 34.1042 32.519 34.1815 32.5368 34.2946C32.5606 34.4077 32.5606 34.5089 32.5368 34.5982C32.513 34.6875 32.4386 34.7708 32.3136 34.8482C32.1886 34.9196 32.013 34.9554 31.7868 34.9554L29.5011 34.9911C29.3583 35.0208 29.1916 35.006 29.0011 34.9464C28.8106 34.8869 28.6559 34.8214 28.5368 34.75L28.3583 34.6429C28.1797 34.5179 27.9714 34.3274 27.7333 34.0714C27.4952 33.8155 27.2898 33.5863 27.1172 33.3839C26.9505 33.1756 26.769 33.003 26.5725 32.8661C26.3821 32.7232 26.2154 32.6756 26.0725 32.7232C26.0547 32.7292 26.0309 32.7411 26.0011 32.7589C25.9714 32.7708 25.9208 32.8125 25.8493 32.8839C25.7779 32.9554 25.7124 33.0446 25.6529 33.1518C25.5993 33.253 25.5487 33.4077 25.5011 33.6161C25.4595 33.8185 25.4416 34.0476 25.4475 34.3036C25.4475 34.3929 25.4356 34.4762 25.4118 34.5536C25.394 34.625 25.3731 34.6786 25.3493 34.7143L25.3136 34.7589C25.2065 34.872 25.0487 34.9375 24.8404 34.9554H23.8136C23.391 34.9792 22.9565 34.9315 22.51 34.8125C22.0636 34.6875 21.6708 34.5298 21.3315 34.3393C20.9981 34.1429 20.6916 33.9464 20.4118 33.75C20.138 33.5476 19.9297 33.375 19.7868 33.2321L19.5636 33.0179C19.5041 32.9583 19.4208 32.869 19.3136 32.75C19.2124 32.631 19.0011 32.3601 18.6797 31.9375C18.3583 31.5149 18.0428 31.0655 17.7333 30.5893C17.4237 30.1131 17.0577 29.4851 16.635 28.7054C16.2184 27.9256 15.8315 27.1161 15.4743 26.2768C15.4386 26.1815 15.4208 26.1012 15.4208 26.0357C15.4208 25.9702 15.4297 25.9226 15.4475 25.8929L15.4833 25.8393C15.5725 25.7262 15.7422 25.6696 15.9922 25.6696L18.4386 25.6518C18.51 25.6637 18.5785 25.6845 18.644 25.7143C18.7094 25.7381 18.7571 25.7619 18.7868 25.7857L18.8315 25.8125C18.9267 25.878 18.9981 25.9732 19.0458 26.0982C19.1648 26.3958 19.3017 26.7054 19.4565 27.0268C19.6112 27.3423 19.7333 27.5833 19.8225 27.75L19.9654 28.0089C20.138 28.3661 20.3047 28.6756 20.4654 28.9375C20.6261 29.1994 20.769 29.4048 20.894 29.5536C21.0249 29.6964 21.1499 29.8095 21.269 29.8929C21.388 29.9762 21.4892 30.0179 21.5725 30.0179C21.6559 30.0179 21.7362 30.003 21.8136 29.9732C21.8255 29.9673 21.8404 29.9524 21.8583 29.9286C21.8761 29.9048 21.9118 29.8393 21.9654 29.7321C22.019 29.625 22.0577 29.4851 22.0815 29.3125C22.1112 29.1399 22.141 28.8988 22.1708 28.5893C22.2005 28.2798 22.2005 27.9077 22.1708 27.4732C22.1589 27.2351 22.1321 27.0179 22.0904 26.8214C22.0487 26.625 22.0071 26.4881 21.9654 26.4107L21.9118 26.3036C21.763 26.1012 21.51 25.9732 21.1529 25.9196C21.0755 25.9077 21.0904 25.8363 21.1975 25.7054C21.2928 25.5923 21.4059 25.503 21.5368 25.4375C21.8523 25.2827 22.5636 25.2113 23.6708 25.2232C24.1589 25.2292 24.5606 25.2679 24.8761 25.3393C24.9952 25.369 25.0934 25.4107 25.1708 25.4643C25.2541 25.5119 25.3166 25.5833 25.3583 25.6786C25.3999 25.7679 25.4297 25.8631 25.4475 25.9643C25.4714 26.0595 25.4833 26.1935 25.4833 26.3661C25.4833 26.5387 25.4803 26.7024 25.4743 26.8571C25.4684 27.0119 25.4595 27.2232 25.4475 27.4911C25.4416 27.753 25.4386 27.997 25.4386 28.2232C25.4386 28.2887 25.4356 28.4137 25.4297 28.5982C25.4237 28.7827 25.4208 28.9256 25.4208 29.0268C25.4267 29.128 25.4386 29.25 25.4565 29.3929C25.4743 29.5298 25.5071 29.6458 25.5547 29.7411C25.6083 29.8304 25.6767 29.9018 25.76 29.9554C25.8077 29.9673 25.8583 29.9792 25.9118 29.9911C25.9654 30.003 26.0428 29.9702 26.144 29.8929C26.2452 29.8155 26.3583 29.7143 26.4833 29.5893C26.6083 29.4583 26.763 29.2589 26.9475 28.9911C27.1321 28.7173 27.3345 28.3958 27.5547 28.0268C27.9118 27.4077 28.2303 26.7381 28.51 26.0179C28.5339 25.9583 28.5636 25.9077 28.5993 25.8661C28.635 25.8185 28.6678 25.7857 28.6975 25.7679L28.7333 25.7411C28.7452 25.7351 28.76 25.7292 28.7779 25.7232C28.7958 25.7113 28.8345 25.7024 28.894 25.6964C28.9535 25.6845 29.013 25.6815 29.0725 25.6875L31.644 25.6696C31.8761 25.6399 32.0666 25.6488 32.2154 25.6964C32.3642 25.7381 32.4565 25.7857 32.4922 25.8393L32.5458 25.9286Z" fill="#667695"/>
</svg>
