<svg width="32" height="32" viewBox="0 0 32 32" fill="none" xmlns="http://www.w3.org/2000/svg">
<path d="M27.0946 20.4113C29.8485 20.1712 31.9998 18.2845 31.9998 15.9999C31.9998 13.7152 29.8485 11.8285 27.0946 11.5884C26.0269 8.90587 24.0075 6.68664 21.4342 5.36908C21.3655 2.43267 18.9723 0 15.9999 0C13.0297 0 10.6343 2.42998 10.5656 5.36915C7.99225 6.6867 5.97283 8.90599 4.90521 11.5885C2.15123 11.8285 0 13.7152 0 15.9999C0 18.2847 2.15155 20.1715 4.90577 20.4113C5.7937 22.6369 7.35557 24.5646 9.34024 25.9058C7.72913 27.1727 6.53076 28.8579 5.90408 30.7703C5.74283 31.2623 6.01102 31.7919 6.50301 31.9531C6.99501 32.1143 7.52457 31.8461 7.68582 31.3542C8.27756 29.5485 9.50043 27.9866 11.1532 26.9111C14.3454 28.3338 17.9594 28.249 21.0184 26.8324C22.7344 27.9091 24.0011 29.4989 24.6089 31.3541C24.7701 31.8462 25.2996 32.1143 25.7917 31.9531C26.2837 31.7919 26.5519 31.2624 26.3907 30.7703C25.7448 28.7991 24.4985 27.0764 22.8184 25.7996C24.6728 24.5088 26.204 22.6545 27.0946 20.4113ZM30.1248 15.9999C30.1248 17.0951 29.0925 18.0557 27.6927 18.4134C28.0185 16.8283 28.0192 15.1748 27.6927 13.5864C29.0925 13.944 30.1248 14.9047 30.1248 15.9999ZM15.9999 1.87499C17.8044 1.87499 19.2998 3.24716 19.5312 5.02002C17.2892 5.21271 15.4319 6.76207 14.7964 8.85537C13.407 8.36125 12.4374 7.03882 12.4374 5.49989C12.4374 3.50116 14.0355 1.87499 15.9999 1.87499ZM1.87499 15.9999C1.87499 14.9047 2.90729 13.944 4.30709 13.5863C3.98122 15.1714 3.98053 16.8249 4.30709 18.4134C2.90729 18.0557 1.87499 17.0951 1.87499 15.9999ZM20.6296 24.9366C15.2359 27.738 8.52387 25.1771 6.45439 19.1914C4.95102 14.6938 6.79826 9.75367 10.8799 7.33657C11.5642 9.25412 13.2923 10.6824 15.4253 10.9069C15.9416 10.9612 16.4034 10.5855 16.4561 10.0699C16.6514 8.15837 18.3215 6.73932 20.2693 6.88638C24.8515 9.03605 27.1759 14.313 25.5453 19.1914C24.639 21.819 22.8196 23.7996 20.6296 24.9366Z" fill="#755CDA"/>
<path d="M13.6984 14.8951C14.0645 14.5289 14.0645 13.9354 13.6984 13.5693C12.355 12.2259 10.1806 12.2257 8.83704 13.5693C8.47091 13.9354 8.47091 14.5289 8.83704 14.8951C9.2031 15.2612 9.79672 15.2612 10.1628 14.8951C10.7735 14.2844 11.7618 14.2844 12.3725 14.8951C12.7387 15.2611 13.3322 15.2612 13.6984 14.8951Z" fill="#755CDA"/>
<path d="M23.1983 13.5692C21.855 12.2259 19.6805 12.2257 18.337 13.5692C17.9708 13.9354 17.9708 14.5289 18.337 14.8951C18.703 15.2612 19.2966 15.2612 19.6628 14.8951C20.2735 14.2844 21.2618 14.2844 21.8725 14.8951C22.2385 15.2611 22.8321 15.2612 23.1983 14.8951C23.5645 14.529 23.5645 13.9354 23.1983 13.5692Z" fill="#755CDA"/>
<path d="M17.8118 19.8369C16.8127 20.836 15.187 20.836 14.1879 19.8369C13.8218 19.4708 13.2282 19.4708 12.8621 19.8369C12.496 20.203 12.496 20.7966 12.8621 21.1627C14.5923 22.8928 17.4075 22.8928 19.1376 21.1627C19.5038 20.7966 19.5038 20.203 19.1376 19.8369C18.7715 19.4708 18.178 19.4708 17.8118 19.8369Z" fill="#755CDA"/>
</svg>
